<?xml version="1.0" standalone="no"?>
<!DOCTYPE svg PUBLIC "-//W3C//DTD SVG 1.1//EN" "http://www.w3.org/Graphics/SVG/1.1/DTD/svg11.dtd" >
<svg xmlns="http://www.w3.org/2000/svg">
<metadata>Generated by IcoMoon</metadata>
<defs>
<font id="icomoon" horiz-adv-x="1024">
<font-face units-per-em="1024" ascent="960" descent="-64" />
<missing-glyph horiz-adv-x="1024" />
<glyph unicode="&#x20;" horiz-adv-x="512" d="" />
<glyph unicode="&#xe900;" glyph-name="alert2" d="M512 886.857q119.429 0 220.286-58.857t159.714-159.714 58.857-220.286-58.857-220.286-159.714-159.714-220.286-58.857-220.286 58.857-159.714 159.714-58.857 220.286 58.857 220.286 159.714 159.714 220.286 58.857zM585.143 174.286v108.571q0 8-5.143 13.429t-12.571 5.429h-109.714q-7.429 0-13.143-5.714t-5.714-13.143v-108.571q0-7.429 5.714-13.143t13.143-5.714h109.714q7.429 0 12.571 5.429t5.143 13.429zM584 370.857l10.286 354.857q0 6.857-5.714 10.286-5.714 4.571-13.714 4.571h-125.714q-8 0-13.714-4.571-5.714-3.429-5.714-10.286l9.714-354.857q0-5.714 5.714-10t13.714-4.286h105.714q8 0 13.429 4.286t6 10z" />
<glyph unicode="&#xe901;" glyph-name="paypal1" d="M331.111 443.556q0-16.444-11.333-27.333t-27.778-10.889q-12.889 0-20.667 7.111t-7.778 19.556q0 16.444 11.111 27.778t27.556 11.333q12.444 0 20.667-7.333t8.222-20.222zM680 509.778q0-18.667-9.778-25.333t-29.333-6.667l-14.222-0.444 7.556 47.556q0.889 4.889 5.778 4.889h8q9.778 0 15.556-0.889t11.111-5.556 5.333-13.556zM836 443.556q0-16-11.333-27.111t-27.333-11.111q-12.889 0-20.889 7.111t-8 19.556q0 16.444 11.111 27.778t27.556 11.333q12.444 0 20.667-7.333t8.222-20.222zM228 519.556q0 26.222-17.111 38t-44.667 11.778h-71.111q-8.444 0-9.333-8.444l-28.889-181.333q-0.444-2.667 1.333-4.889t4.444-2.222h33.778q8.889 0 9.778 8.444l8 48.889q0.444 3.556 3.111 5.778t6.667 2.889 7.556 0.667 8.444-0.444 6.222-0.444q38.222 0 60 21.556t21.778 59.778zM365.333 380.889l18.222 116q0.444 2.667-1.333 4.889t-4.444 2.222h-33.778q-6.222 0-7.556-14.667-12 17.778-42.222 17.778-32 0-54.444-24t-22.444-56.444q0-26.222 15.333-41.778t41.111-15.556q12.444 0 25.778 5.333t21.333 14.222q-1.778-5.333-1.778-9.333 0-7.111 5.778-7.111h30.667q8.444 0 9.778 8.444zM564 497.778q0 2.222-1.778 4.222t-4 2h-34.222q-4.889 0-8-4.444l-47.111-69.333-19.556 66.667q-2.222 7.111-9.778 7.111h-33.333q-2.222 0-4-2t-1.778-4.222q0-0.889 8.667-26.222t18.667-54.667 10.444-31.111q-36.444-49.778-36.444-53.333 0-5.778 5.778-5.778h34.222q4.889 0 8 4.444l113.333 163.556q0.889 0.889 0.889 3.111zM732.889 519.556q0 26.222-17.111 38t-44.667 11.778h-70.667q-8.889 0-9.778-8.444l-28.889-181.333q-0.444-2.667 1.333-4.889t4.444-2.222h36.444q5.333 0 7.111 5.778l8 51.556q0.444 3.556 3.111 5.778t6.667 2.889 7.556 0.667 8.444-0.444 6.222-0.444q38.222 0 60 21.556t21.778 59.778zM870.222 380.889l18.222 116q0.444 2.667-1.333 4.889t-4.444 2.222h-33.778q-6.222 0-7.556-14.667-11.556 17.778-42.222 17.778-32 0-54.444-24t-22.444-56.444q0-26.222 15.333-41.778t41.111-15.556q12.889 0 26.222 5.333t20.889 14.222q0-0.444-0.889-4t-0.889-5.333q0-7.111 5.778-7.111h30.667q8.444 0 9.778 8.444zM967.111 562.667v0.444q0 6.222-5.778 6.222h-32.889q-4.889 0-5.778-4.889l-28.889-184.889-0.444-0.889q0-2.222 1.778-4.222t4.444-2h29.333q8.444 0 9.333 8.444zM174.222 503.111q-2.222-15.556-11.556-20.444t-26.667-4.889l-14.667-0.444 7.556 47.556q0.889 4.889 5.778 4.889h8.444q17.778 0 25.778-5.111t5.333-21.556zM1024 732.444v-568.889q0-23.111-16.889-40t-40-16.889h-910.222q-23.111 0-40 16.889t-16.889 40v568.889q0 23.111 16.889 40t40 16.889h910.222q23.111 0 40-16.889t16.889-40z" />
<glyph unicode="&#xe902;" glyph-name="mastercard1" d="M497.333 694.667q-56.889 37.778-124.889 37.778-45.778 0-87.778-18t-72.222-48.222-48.222-72-18-87.556q0-46.222 18-88t48.222-72 72-48.222 88-18q68 0 124.889 37.778-58.222 47.556-79.111 118t0.222 140.667 78.889 117.778zM512 684q-56-44-76.444-110.889t-0.222-133.556 76.667-110.667q56.444 44 76.667 110.667t-0.222 133.556-76.444 110.889zM526.667 694.667q57.778-47.556 78.889-118t0.222-140.889-79.111-117.556q56.889-37.778 124.889-37.778 46.222 0 88 18t72 48.222 48.222 72 18 88q0 45.778-18 87.556t-48.222 72-72.222 48.222-87.778 18q-68 0-124.889-37.778zM856 373.778h3.111v1.333h-7.556v-1.333h3.111v-7.556h1.333v7.556zM868.889 366.222h1.778v8.889h-2.222l-2.667-5.778-2.667 5.778h-2.222v-8.889h1.333v6.667l2.667-5.778h1.778l2.222 5.778v-6.667zM865.333 170.667v-0.889h-2.222v1.333h2.222v-0.444zM865.333 166.667h1.333l-1.778 2.222h0.889l0.444 0.444q0.444 0.444 0.444 1.333t-0.444 1.333l-0.444 0.444h-4v-5.778h1.333v2.222h0.444zM304.444 196.889q0 8.444 4.889 13.778t13.333 5.333q8 0 12.889-5.556t4.889-13.556q0-8.444-4.889-13.778t-12.889-5.333q-8.444 0-13.333 5.333t-4.889 13.778zM514.667 216.444q13.333 0 15.556-14.222h-31.111q2.222 14.222 15.556 14.222zM672.889 196.889q0 8.444 4.889 13.778t12.889 5.333 13.111-5.556 5.111-13.556q0-8.444-4.889-13.778t-13.333-5.333q-8 0-12.889 5.333t-4.889 13.778zM793.778 196.889q0 8 5.111 13.556t13.111 5.556 13.111-5.556 5.111-13.556q0-8.444-5.111-13.778t-13.111-5.333-13.111 5.556-5.111 13.556zM864 164.889q-0.889 0-1.778 0.444-0.444 0-1.333 0.889t-0.889 1.333q-0.444 0.889-0.444 1.778 0 1.333 0.444 1.778 0 0.889 0.889 1.778l0.444 0.444q0.889 0 0.889 0.444 0.889 0.444 1.778 0.444 1.333 0 1.778-0.444l1.778-0.889 0.889-1.778v-0.444q0.444-0.889 0.444-1.333l-0.444-0.444v-1.333l-0.444-0.444-0.444-0.889q-0.889-0.889-1.778-0.889-0.444-0.444-1.778-0.444zM266.222 166.667h13.333v37.778q0 10.667-6.444 17.111t-17.556 6.889q-14.222 0-20.889-10.667-6.222 10.667-20 10.667-10.667 0-17.333-8.889v7.111h-13.333v-60h13.333v33.333q0 16 14.667 16 13.333 0 13.333-16v-33.333h12.889v33.333q0 16 14.667 16 13.333 0 13.333-16v-33.333zM340 166.667h12.889v60h-12.889v-7.111q-7.556 8.889-19.111 8.889-12.889 0-21.333-8.889t-8.444-22.667 8.444-22.667 21.333-8.889q12.444 0 19.111 8.889v-7.556zM419.111 184.889q0 15.111-20.889 17.778l-6.222 0.889q-10.222 1.778-10.222 6.222 0 6.667 11.111 6.667 10.222 0 19.111-4.889l5.333 10.667q-9.778 6.222-24.444 6.222-11.556 0-18.222-5.333t-6.667-14.222q0-14.667 20.889-17.333l5.778-0.889q10.667-1.778 10.667-6.222 0-7.556-13.778-7.556-11.111 0-20 6.222l-5.778-10.222q11.111-7.556 25.778-7.556 12.889 0 20.222 5.333t7.333 14.222zM476.889 169.778l-3.556 11.111q-5.778-3.111-11.556-3.111-8.444 0-8.444 9.778v27.111h21.333v12h-21.333v18.222h-13.333v-18.222h-12.444v-12h12.444v-27.111q0-22.222 20.889-22.222 9.333 0 16 4.444zM515.111 228.444q-12.889 0-21.333-8.889t-8.444-22.667q0-14.222 8.667-22.889t22-8.667q14.667 0 24.444 8.444l-6.222 9.778q-8-6.667-17.333-6.667-15.111 0-18.222 14.667h44.889v5.333q0 14.222-8 22.889t-20.444 8.667zM585.778 228.444q-10.222 0-15.556-8.889v7.111h-13.333v-60h13.333v33.778q0 15.556 12.889 15.556 4.444 0 8-1.778l4 12.444q-4 1.778-9.333 1.778zM599.111 196.889q0-13.778 8.667-22.667t23.333-8.889q12.889 0 21.333 7.111l-6.222 10.667q-8-5.778-15.556-5.333-8 0-13.111 5.333t-5.111 13.778 5.111 13.778 13.111 5.333q8.444 0 15.556-5.333l6.222 10.667q-8.889 7.111-21.333 7.111-14.667 0-23.333-8.889t-8.667-22.667zM708 166.667h13.333v60h-13.333v-7.111q-6.667 8.889-18.667 8.889-12.889 0-21.556-8.889t-8.667-22.667 8.667-22.667 21.556-8.889q12.444 0 18.667 8.889v-7.556zM767.111 228.444q-10.222 0-15.556-8.889v7.111h-12.889v-60h12.889v33.778q0 15.556 12.889 15.556 4.444 0 8-1.778l4 12.444q-3.556 1.778-9.333 1.778zM829.333 166.667h12.889v84.444h-12.889v-31.556q-6.667 8.889-19.111 8.889t-21.111-9.111-8.667-22.444 8.667-22.444 21.111-9.111q12.889 0 19.111 8.889v-7.556zM864 175.556l-0.889-0.444h-1.333q-0.889-0.444-1.778-1.333-1.333-0.444-1.333-1.778-0.444-0.889-0.444-2.667 0-1.333 0.444-2.222 0-0.889 1.333-1.778 0.889-0.889 1.778-1.333t2.222-0.444q1.778 0 2.667 0.444 0 0.444 0.889 0.889l0.889 0.444q0.444 0.444 1.333 1.778 0.444 0.889 0.444 2.222 0 1.778-0.444 2.667-0.444 0.444-1.333 1.778 0 0.444-0.889 0.889l-0.889 0.444q-0.444 0-1.333 0.222t-1.333 0.222zM1024 732.444v-568.889q0-23.111-16.889-40t-40-16.889h-910.222q-23.111 0-40 16.889t-16.889 40v568.889q0 23.111 16.889 40t40 16.889h910.222q23.111 0 40-16.889t16.889-40z" />
<glyph unicode="&#xe903;" glyph-name="jcb1" d="M867.111 402.667q0-11.556-6.889-19.778t-17.111-10.444q-3.556-0.889-8-0.889h-68v62.222h68q4.444 0 8-0.889 10.222-2.222 17.111-10.444t6.889-19.778zM859.111 497.333q0-11.111-6.667-18.667t-16.889-9.333q-1.333-0.444-6.667-0.444h-61.778v57.333h61.778q1.333 0 3.778-0.222t2.889-0.222q10.222-1.778 16.889-9.556t6.667-18.889zM323.556 424.444v136.889h-101.333v-136.889q0-25.778-16.889-42t-46.667-16.222q-48 0-101.778 26.222v-49.778q23.556-6.667 53.778-10.222t48.444-4l18.667-0.444q145.778 0 145.778 96.444zM640.889 342.667v50.222q-44-23.111-88.889-26.222-48-3.556-75.111 18.222t-27.111 63.111 27.111 63.111 75.111 18.222q44.889-3.111 88.889-25.778v49.778q-21.333 5.333-44.444 8.667t-35.556 4.222l-12.444 0.889q-56.444 2.667-97.111-6.222t-62.444-26.667-31.556-39.111-9.778-47.111 9.778-47.111 31.556-39.111 62.444-26.667 97.111-6.222q44.889 1.778 92.444 13.778zM967.111 393.778q0 24-19.111 39.333t-48.444 17.556v1.333q25.333 3.556 39.556 18.444t14.222 35.333q0 24.444-18.222 39.111t-47.556 16q-1.333 0-5.333 0.222t-6.222 0.222h-202.222v-226.667h218.222q32.889 0 54 16.222t21.111 42.889zM1024 732.444v-568.889q0-23.111-16.889-40t-40-16.889h-910.222q-23.111 0-40 16.889t-16.889 40v568.889q0 23.111 16.889 40t40 16.889h910.222q23.111 0 40-16.889t16.889-40z" />
<glyph unicode="&#xe904;" glyph-name="visa1" d="M877.778 406.222h-61.333q6.222 16.444 29.333 79.556l1.333 4q1.778 4.444 4.444 11.556t4 11.556l5.333-24.444zM236 435.111l-25.778 131.111q-4.889 24-33.333 24h-119.111l-0.889-5.778q138.222-35.111 179.111-149.333zM315.556 590.222l-72-194.667-7.556 39.556q-11.556 31.111-37.778 57.556t-58.222 39.333l60-226.667h77.778l116 284.889h-78.222zM377.333 304.889h73.778l46.222 285.333h-73.778zM718.667 583.111q-30.667 12-66.222 12-54.667 0-89.333-26.222t-35.111-68q-0.444-45.333 64.444-77.333 21.333-10.222 29.778-18.222t8.444-17.333q0-13.333-13.333-20.444t-30.667-7.111q-38.222 0-69.333 14.667l-9.778 4.889-10.222-64q32.889-15.111 82.222-15.111 57.778-0.444 92.667 26.222t35.778 71.111q0 47.111-62.222 77.333-21.778 11.111-31.556 18.667t-9.778 16.889q0 9.778 10.889 17.111t31.333 7.333q31.111 0.444 55.111-10.667l6.667-3.556zM907.556 590.222h-56.889q-28.889 0-38.667-24l-109.333-261.333h77.333l15.556 42.667h94.222q2.222-9.778 8.889-42.667h68.444zM1024 732.444v-568.889q0-23.111-16.889-40t-40-16.889h-910.222q-23.111 0-40 16.889t-16.889 40v568.889q0 23.111 16.889 40t40 16.889h910.222q23.111 0 40-16.889t16.889-40z" />
<glyph unicode="&#xe905;" glyph-name="stripe1" d="M709.778 444.889q0-30.667-9.333-47.111-8.444-15.556-23.111-15.556-10.222 0-18.222 4v99.556q12.889 13.333 25.333 13.333 25.333 0 25.333-54.222zM904.444 460.889h-48.889q2.667 43.556 24.889 43.556 22.667 0 24-43.556zM211.556 400.889q0 26.222-14.667 40.667t-44.889 25.556q-16 5.778-23.111 10.667t-7.111 11.111q0 11.556 16.889 11.556 25.778 0 55.111-14.667l8 49.778q-29.778 14.222-66.222 14.222-34.222 0-54.667-16.889-21.333-17.333-21.333-48.444 0-25.778 14.444-40.222t44.222-25.111q17.333-6.222 24.222-11.333t6.889-12.222q0-13.778-21.333-13.778-12.889 0-31.111 5.556t-32 13.556l-8-50.222q32-18.222 74.667-18.222 36 0 57.333 16.444 22.667 18.222 22.667 52zM342.667 496.444l8.444 49.333h-42.667v60l-57.333-9.333-8-50.667-20.444-3.556-7.556-45.778h27.556v-97.333q0-37.333 19.556-53.333 16.889-13.333 49.333-13.333 14.222 0 35.111 4.889v52.444q-14.222-3.111-19.556-3.111-18.667 0-18.667 22.222v87.556h34.222zM483.111 485.333v61.778q-6.667 1.333-12.444 1.333-14.222 0-24.667-7.111t-14.889-20.444l-4.444 24.889h-58.222v-209.333h66.667v136q11.556 13.778 36.444 13.778 7.111 0 11.556-0.889zM499.556 336.444h66.667v209.333h-66.667v-209.333zM776 447.111q0 54.222-20 79.556-17.778 23.111-49.333 23.111-28.444 0-52-24.889l-3.556 20.889h-58.667v-286.667l66.667 11.111v67.111q16-4.889 30.222-4.889 36.889 0 59.556 24.889 27.111 28.889 27.111 89.778zM568 601.778q0 14.667-10.222 24.889t-24.889 10.222-24.889-10.222-10.222-24.889 10.222-25.111 24.889-10.444 24.889 10.444 10.222 25.111zM967.111 443.111q0 50.222-21.333 78.222-22.222 28.444-64 28.444-42.667 0-67.333-29.333t-24.667-80q0-56.889 28-83.556 24.444-24.444 71.556-24.444 44.889 0 71.111 17.778l-7.111 45.778q-25.333-13.778-56.889-13.778-19.111 0-28 8.444-10.222 8.444-12.444 29.333h110.222q0.889 6.222 0.889 23.111zM1024 732.444v-568.889q0-23.111-16.889-40t-40-16.889h-910.222q-23.111 0-40 16.889t-16.889 40v568.889q0 23.111 16.889 40t40 16.889h910.222q23.111 0 40-16.889t16.889-40z" />
<glyph unicode="&#xe906;" glyph-name="word1" d="M1023.957 800.725v-706.005c0-6.016-2.133-10.88-6.357-14.763-4.309-4.011-9.429-5.888-15.36-5.888h-365.184v97.92h297.899v44.587h-298.155v54.571h297.899v44.544h-297.685v55.040h297.813v44.032h-297.813v55.168h297.813v44.544h-297.813v54.571h297.813v44.501h-297.813v55.68h297.813v42.411h-297.813v110.635h365.312c6.357 0 11.52-2.048 15.275-6.357 4.48-4.224 6.4-9.387 6.357-15.189zM582.4 932.651v-969.472l-582.4 100.779v765.184l582.4 103.509zM494.507 646.443l-72.917-4.48-46.763-289.493h-1.067c-2.304 13.696-10.88 61.653-26.24 143.659l-27.264 139.221-68.437-3.413-27.392-135.808c-16-79.104-24.917-125.141-27.264-138.069h-0.64l-41.6 266.667-62.72-3.328 67.2-336.341 69.717-4.48 26.24 130.901c15.36 76.8 24.32 121.429 26.24 133.632h1.92c2.603-13.013 10.923-58.624 26.24-136.96l26.24-134.741 75.52-4.48 84.48 377.6h-1.493z" />
<glyph unicode="&#xe907;" glyph-name="ppt1" d="M1001.984 789.333h-364.459v-135.936c21.973 16.64 48.299 25.088 79.147 25.088v-132.181h131.157c-0.64-37.077-13.44-68.352-38.443-93.568-24.917-25.259-56.235-38.229-93.355-39.083-28.8 0.853-55.040 9.515-78.037 26.24v-90.837h286.677v-44.587h-286.763v-55.168h286.507v-44.032h-286.677v-99.84h364.501c14.763 0 21.76 7.765 21.76 22.912v639.232c0 14.592-6.997 21.76-21.76 21.76h-0.256zM737.28 568.064v133.291c37.12-0.853 68.267-13.739 93.355-38.827 25.003-25.088 38.016-56.576 38.656-94.464h-132.011zM352.256 565.845c-2.261 8.576-5.973 15.232-11.221 20.139-5.12 4.779-12.032 8.277-20.608 10.496-9.6 2.603-19.499 3.84-29.44 3.84l-30.72-0.597v-127.957h1.109c11.136-0.683 22.827-0.683 35.2 0 12.16 0.64 23.68 3.84 34.517 9.6 13.355 9.6 21.333 22.4 23.936 38.997 2.56 16.683 1.664 32.683-2.731 47.403v-1.92zM0 829.483v-765.696l584.021-100.907v970.24l-584.021-103.637zM435.755 484.437c-16-37.077-39.893-60.8-71.851-71.040-31.957-10.197-66.475-14.165-103.637-11.904v-146.005l-76.843 8.917v401.152l121.984 6.357c22.613 1.408 44.971-1.067 66.816-7.68 21.973-6.485 39.339-19.584 52.181-39.339 12.8-19.669 20.011-42.496 21.76-68.48 1.579-25.984-1.835-50.005-10.411-71.979z" />
<glyph unicode="&#xe908;" glyph-name="excel1" d="M1004.928 827.648h-343.040v-63.488h101.12v-100.437h-101.12v-32h101.12v-100.565h-101.12v-32.896h101.12v-95.104h-101.12v-38.101h101.12v-95.317h-101.12v-38.101h101.12v-95.872h-101.12v-69.931h343.040c5.419 1.621 9.941 8.021 13.568 19.115 3.627 11.179 5.504 20.267 5.504 27.136v703.957c0 5.461-1.877 8.747-5.504 9.899-3.627 1.109-8.149 1.707-13.568 1.707zM960.427 135.851h-164.565v95.787h164.565v-95.787zM960.427 269.739h-164.565v95.36h164.565v-95.36zM960.427 403.2h-164.565v94.677h164.565v-94.677zM960.427 531.2h-164.565v100.437h164.565v-100.437zM960.427 664.277h-164.565v99.84h164.565v-99.84zM0 843.477v-793.643l604.16-104.491v1005.312l-604.16-107.179zM358.101 243.115c-2.304 6.229-13.141 32.683-32.341 79.488-19.157 46.763-30.72 73.984-34.091 81.749h-1.067l-64.811-154.24-86.613 5.845 102.741 192-94.080 192 88.32 4.651 58.368-150.229h1.152l65.92 157.056 91.264 5.76-108.672-207.787 112-211.968-98.091 5.675z" />
<glyph unicode="&#xe909;" glyph-name="outlook1" d="M1024 644.821v-447.061c0-9.813-3.413-18.091-10.155-24.576-6.741-6.571-15.019-9.813-24.747-9.813h-364.672v296.917l68.267-52.437c4.352-3.627 9.771-5.376 16.171-5.376 6.315 0 11.819 1.749 16.597 5.419l298.539 236.928zM624.427 731.051h364.672c9.003 0 16.768-2.688 23.168-8.192 6.4-5.461 9.984-12.8 10.581-21.76l-314.411-250.709-84.011 66.091v214.571zM571.904 923.136v-950.229l-571.904 98.816v749.867l571.904 101.547zM399.147 446.123c-0.853 48.341-13.355 88.405-37.504 120.064-23.68 31.573-54.4 48.256-90.923 49.664-35.157-1.408-65.237-18.048-89.6-49.664-24.32-31.659-36.48-71.765-37.12-120.064 0.64-47.659 13.44-87.339 37.76-119.083 24.363-31.573 54.357-48.341 89.643-50.176 36.48 1.493 67.157 18.091 91.52 49.92 24.32 31.915 37.12 71.68 37.76 119.339h-1.536zM266.027 552.021c18.389-0.853 33.877-10.923 46.208-30.592 12.16-19.669 18.56-44.587 18.56-74.752 0-30.763-6.357-55.765-18.56-75.563-12.843-19.797-28.16-30.037-46.763-30.037s-33.92 9.643-46.72 29.44-18.56 44.8-18.56 74.837c0 30.080 5.76 55.083 18.56 74.24 12.117 19.2 27.563 29.44 46.123 30.763l1.152 1.664z" />
<glyph unicode="&#xe90a;" glyph-name="home2" d="M1024 384l-192 192v256h-128v-128l-192 192-512-512h128l64-320c0-35.2 28.8-64 64-64h512c35.2 0 64 28.8 64 64l64 320h128zM768 64h-192v256h-128v-256h-192l-76.16 403.84 332.16 332.16 332.16-332.16-76.16-403.84z" />
<glyph unicode="&#xe90b;" glyph-name="mail3" d="M64 704v-512c0-35.2 28.8-64 64-64h768c35.2 0 64 28.8 64 64v512c0 35.2-28.8 64-64 64h-768c-35.2 0-64-28.8-64-64zM896 704l-384-320-384 320h768zM128 608l256-192-256-192v384zM192 192l224 192 96-96 96 96 224-192h-640zM896 224l-256 192 256 192v-384z" />
<glyph unicode="&#xe90c;" glyph-name="slash1" d="M512 896c-247.040 0-448-200.96-448-448s200.96-448 448-448 448 200.96 448 448-200.96 448-448 448zM512 812.8c83.2 0 160-28.16 222.080-74.88l-512-512c-46.628 60.956-74.757 138.221-74.88 222.051v0.029c0 200.96 163.84 364.8 364.8 364.8zM512 82.56c-83.2 0-160 28.16-222.080 74.88l512 512c46.72-62.080 74.88-138.88 74.88-222.080 0-200.96-163.84-364.8-364.8-364.8z" />
<glyph unicode="&#xe90d;" glyph-name="triangle1" d="M128 640l384-384 384 384h-768z" />
<glyph unicode="&#xe90e;" glyph-name="unlock4" d="M768 106.667v426.667h-512v-426.667h512zM768 618.667c46.933 0 85.333-38.4 85.333-85.333v-426.667c0-46.933-38.4-85.333-85.333-85.333h-512c-47.36 0-85.333 38.4-85.333 85.333v426.667c0 46.933 38.4 85.333 85.333 85.333h384v85.333c0 70.827-57.173 128-128 128s-128-57.173-128-128h-85.333c0 117.76 95.573 213.333 213.333 213.333s213.333-95.573 213.333-213.333v-85.333h42.667zM512 234.667c-46.933 0-85.333 38.4-85.333 85.333s38.4 85.333 85.333 85.333c46.933 0 85.333-38.4 85.333-85.333s-38.4-85.333-85.333-85.333z" />
<glyph unicode="&#xe90f;" glyph-name="lock2" d="M512 234.667c-47.36 0-85.333 38.4-85.333 85.333 0 47.36 37.973 85.333 85.333 85.333 46.933 0 85.333-38.4 85.333-85.333s-38.4-85.333-85.333-85.333zM768 106.667v426.667h-512v-426.667h512zM768 618.667c46.933 0 85.333-38.4 85.333-85.333v-426.667c0-46.933-38.4-85.333-85.333-85.333h-512c-47.36 0-85.333 38.4-85.333 85.333v426.667c0 47.36 37.973 85.333 85.333 85.333h42.667v85.333c0 117.76 95.573 213.333 213.333 213.333s213.333-95.573 213.333-213.333v-85.333h42.667zM512 832c-70.827 0-128-57.173-128-128v-85.333h256v85.333c0 70.827-57.173 128-128 128z" />
<glyph unicode="&#xe910;" glyph-name="copy3" d="M430.080 496.64c2.133 14.080 6.827 26.453 12.8 36.693 5.12 11.093 14.507 20.053 25.173 26.88 10.24 6.4 22.613 9.387 38.827 9.813 9.813-0.427 18.773-2.133 26.453-5.547 8.96-3.84 16.64-9.813 22.613-15.36 5.973-6.4 10.667-14.080 14.507-22.613s5.547-17.92 5.547-27.307h76.8c-0.853 20.053-4.693 38.4-12.8 55.467-6.4 16.213-16.213 30.72-29.013 42.667-13.653 11.947-28.16 21.333-46.080 28.16s-37.547 9.813-59.307 9.813c-27.733 0-52.053-4.693-72.533-14.507s-37.547-23.467-51.2-39.253c-13.653-16.64-23.893-35.84-30.293-58.027s-10.24-45.227-10.24-69.973v-11.52c0-24.747 3.413-47.787 9.813-69.973s16.64-41.387 30.293-57.6c13.653-15.787 30.72-29.44 51.2-38.827s44.8-14.507 72.533-14.507c20.053 0 38.827 3.413 56.32 9.813s32.853 15.36 46.080 27.733c13.227 10.667 23.893 23.893 32.427 39.253 6.827 15.36 11.52 31.573 11.947 49.067h-75.947c0-8.96-2.987-17.067-6.827-24.32-3.84-8.107-8.96-14.507-14.507-20.053-7.253-5.547-14.507-9.813-23.040-12.8-8.107-2.987-16.64-3.84-25.6-4.267-15.36 0.427-28.16 3.413-37.973 9.813-10.667 5.973-20.053 15.787-25.173 27.307-5.973 9.813-10.667 22.613-12.8 36.693s-3.413 28.587-3.413 42.667v11.52c0 15.787 1.28 29.013 3.413 43.093zM512 874.667c-235.52 0-426.667-191.147-426.667-426.667s191.147-426.667 426.667-426.667c235.52 0 426.667 191.147 426.667 426.667s-191.147 426.667-426.667 426.667zM512 106.667c-188.16 0-341.333 153.173-341.333 341.333s153.173 341.333 341.333 341.333c188.16 0 341.333-153.173 341.333-341.333s-153.173-341.333-341.333-341.333z" />
<glyph unicode="&#xe911;" glyph-name="copy5" d="M810.667 64h-469.333v597.333h469.333zM810.667 746.667h-469.333c-46.933 0-85.333-38.4-85.333-85.333v-597.333c0-46.933 38.4-85.333 85.333-85.333h469.333c46.933 0 85.333 38.4 85.333 85.333v597.333c0 46.933-38.4 85.333-85.333 85.333zM682.667 917.333h-512c-46.933 0-85.333-38.4-85.333-85.333v-597.333h85.333v597.333h512v85.333z" />
<glyph unicode="&#xe912;" glyph-name="clock1" d="M512 106.667c188.587 0 341.333 152.747 341.333 341.333s-152.747 341.333-341.333 341.333c-188.587 0-341.333-152.747-341.333-341.333s152.747-341.333 341.333-341.333zM512 874.667c235.52 0 426.667-191.147 426.667-426.667s-191.147-426.667-426.667-426.667c-235.947 0-426.667 192-426.667 426.667 0 235.52 191.147 426.667 426.667 426.667zM533.333 661.333v-224l192-113.92-32-52.48-224 134.4v256h64z" />
<glyph unicode="&#xe913;" glyph-name="check2" d="M896 661.333l-512-512-234.667 234.667 60.16 60.16 174.507-174.080 451.84 451.413 60.16-60.16z" />
<glyph unicode="&#xe914;" glyph-name="check4" d="M512 874.667c235.52 0 426.667-191.147 426.667-426.667s-191.147-426.667-426.667-426.667c-235.52 0-426.667 191.147-426.667 426.667s191.147 426.667 426.667 426.667zM512 789.333c-188.587 0-341.333-152.747-341.333-341.333s152.747-341.333 341.333-341.333c188.587 0 341.333 152.747 341.333 341.333s-152.747 341.333-341.333 341.333zM469.333 256l-192 192 60.16 60.16 131.84-131.413 238.507 238.080 60.16-60.16-298.667-298.667z" />
<glyph unicode="&#xe915;" glyph-name="check3" d="M512 874.667c235.52 0 426.667-191.147 426.667-426.667s-191.147-426.667-426.667-426.667c-235.52 0-426.667 191.147-426.667 426.667s191.147 426.667 426.667 426.667zM469.333 256l298.667 298.667-60.16 60.16-238.507-238.080-131.84 131.413-60.16-60.16 192-192z" />
<glyph unicode="&#xe916;" glyph-name="slack1" d="M723.456 432.555c-5.104 15.353-19.338 26.23-36.112 26.23-4.204 0-8.248-0.683-12.028-1.944l0.268 0.078-38.315-12.416c-8.448 26.112-17.493 53.888-26.027 80l38.315 12.416c15.383 5.102 26.283 19.358 26.283 36.16 0 20.996-17.020 38.016-38.016 38.016-4.194 0-8.229-0.679-12.002-1.933l0.268 0.077-38.315-12.459-12.459 38.272c-5.101 15.36-19.338 26.242-36.117 26.242-20.973 0-37.975-17.002-37.975-37.975 0-4.194 0.68-8.229 1.935-12.001l-0.077 0.268 12.459-38.315-80-26.027-12.459 38.315c-5.101 15.371-19.348 26.262-36.139 26.262-20.984 0-37.996-17.011-37.996-37.996 0-4.194 0.679-8.229 1.934-12.002l-0.077 0.268 12.459-38.315-39.509-12.843c-14.753-5.435-25.084-19.37-25.084-35.719 0-3.752 0.544-7.377 1.558-10.8l-0.068 0.269c5.803-20.139 27.221-32.427 47.061-26.027l39.509 12.885 26.027-80-39.552-12.885c-14.744-5.455-25.064-19.393-25.064-35.742 0-3.728 0.537-7.331 1.537-10.735l-0.068 0.269c5.845-20.181 27.264-32.512 47.061-26.027 0.171 0 15.701 5.077 39.552 12.8l12.843-39.467c5.451-14.75 19.393-25.075 35.746-25.075 3.742 0 7.358 0.541 10.774 1.548l-0.269-0.068c20.139 5.803 32.469 27.221 26.027 47.061-0.043 0.128-5.12 15.659-12.8 39.509 26.112 8.491 53.888 17.493 79.957 26.027l12.843-39.552c5.451-14.75 19.393-25.075 35.746-25.075 3.742 0 7.358 0.541 10.774 1.548l-0.269-0.068c20.181 5.845 32.469 27.264 26.027 47.061l-12.843 39.509 38.272 12.459c15.376 5.106 26.27 19.359 26.27 36.156 0 4.203-0.682 8.247-1.942 12.027l0.078-0.268zM485.035 395.008l-26.027 80c26.155 8.448 53.931 17.493 80 25.984l26.027-80-80-26.027zM256 789.333c-47.128 0-85.333-38.205-85.333-85.333v0-512c0-47.128 38.205-85.333 85.333-85.333v0h512c47.128 0 85.333 38.205 85.333 85.333v0 512c0 47.128-38.205 85.333-85.333 85.333v0h-512zM256 874.667h512c94.257 0 170.667-76.41 170.667-170.667v0-512c0-94.257-76.41-170.667-170.667-170.667v0h-512c-94.257 0-170.667 76.41-170.667 170.667v0 512c0 94.257 76.41 170.667 170.667 170.667v0z" />
<glyph unicode="&#xe917;" glyph-name="info5" d="M512 21.333c-235.648 0-426.667 191.019-426.667 426.667s191.019 426.667 426.667 426.667 426.667-191.019 426.667-426.667-191.019-426.667-426.667-426.667zM512 106.667c188.513 0 341.333 152.82 341.333 341.333s-152.82 341.333-341.333 341.333v0c-188.513 0-341.333-152.82-341.333-341.333s152.82-341.333 341.333-341.333v0zM512 533.333c23.564 0 42.667-19.103 42.667-42.667v0-213.333c0-23.564-19.103-42.667-42.667-42.667s-42.667 19.103-42.667 42.667v0 213.333c0 23.564 19.103 42.667 42.667 42.667v0zM512 576c-23.564 0-42.667 19.103-42.667 42.667s19.103 42.667 42.667 42.667v0c23.564 0 42.667-19.103 42.667-42.667s-19.103-42.667-42.667-42.667v0z" />
<glyph unicode="&#xe918;" glyph-name="del10" d="M419.328 746.667h434.005c47.128 0 85.333-38.205 85.333-85.333v0-426.667c0-47.128-38.205-85.333-85.333-85.333v0h-434.005c-23.562 0.005-44.892 9.559-60.33 25.002l-243.499 243.499c-7.718 7.721-12.492 18.386-12.492 30.165s4.774 22.445 12.492 30.165l243.499 243.499c15.439 15.443 36.769 24.997 60.33 25.003h0.001zM419.328 234.667h434.005v426.667h-434.005l-213.333-213.333 213.333-213.333zM700.331 448l60.331-60.331c7.41-7.665 11.977-18.12 11.977-29.641 0-23.564-19.103-42.667-42.667-42.667-11.521 0-21.976 4.567-29.653 11.989l-60.319 60.319-60.331-60.331c-7.769-8.036-18.647-13.026-30.69-13.026-23.564 0-42.667 19.103-42.667 42.667 0 12.043 4.989 22.92 13.014 30.678l60.343 60.343-60.331 60.331c-8.036 7.769-13.026 18.647-13.026 30.69 0 23.564 19.103 42.667 42.667 42.667 12.043 0 22.92-4.989 30.678-13.014l60.343-60.343 60.331 60.331c7.769 8.036 18.647 13.026 30.69 13.026 23.564 0 42.667-19.103 42.667-42.667 0-12.043-4.989-22.92-13.014-30.678l-60.343-60.343z" />
<glyph unicode="&#xe919;" glyph-name="del4" d="M256 874.667h512c94.257 0 170.667-76.41 170.667-170.667v0-512c0-94.257-76.41-170.667-170.667-170.667v0h-512c-94.257 0-170.667 76.41-170.667 170.667v0 512c0 94.257 76.41 170.667 170.667 170.667v0zM256 789.333c-47.128 0-85.333-38.205-85.333-85.333v0-512c0-47.128 38.205-85.333 85.333-85.333v0h512c47.128 0 85.333 38.205 85.333 85.333v0 512c0 47.128-38.205 85.333-85.333 85.333v0h-512zM572.331 448l120.704-120.661c7.725-7.725 12.504-18.398 12.504-30.187 0-23.577-19.113-42.69-42.69-42.69-11.789 0-22.461 4.778-30.187 12.504l-120.661 120.704-120.661-120.704c-7.725-7.725-18.398-12.504-30.187-12.504-23.577 0-42.69 19.113-42.69 42.69 0 11.789 4.778 22.461 12.504 30.187v0l120.704 120.661-120.704 120.661c-7.725 7.725-12.504 18.398-12.504 30.187 0 23.577 19.113 42.69 42.69 42.69 11.789 0 22.461-4.778 30.187-12.504l120.661-120.704 120.661 120.704c7.725 7.725 18.398 12.504 30.187 12.504 23.577 0 42.69-19.113 42.69-42.69 0-11.789-4.778-22.461-12.504-30.187v0l-120.704-120.661z" />
<glyph unicode="&#xe91a;" glyph-name="arrow1" d="M589.995 448l-150.827-150.869c-7.41-7.665-11.977-18.12-11.977-29.641 0-23.564 19.103-42.667 42.667-42.667 11.521 0 21.976 4.567 29.653 11.989l181.023 181.023c7.718 7.721 12.492 18.386 12.492 30.165s-4.774 22.445-12.492 30.165l-181.035 181.035c-7.665 7.41-18.12 11.977-29.641 11.977-23.564 0-42.667-19.103-42.667-42.667 0-11.521 4.567-21.976 11.989-29.653l150.815-150.857zM512 21.333c-235.648 0-426.667 191.019-426.667 426.667s191.019 426.667 426.667 426.667 426.667-191.019 426.667-426.667-191.019-426.667-426.667-426.667z" />
<glyph unicode="&#xe91b;" glyph-name="arrow2" d="M434.005 448l150.827 150.869c8.036 7.769 13.026 18.647 13.026 30.69 0 23.564-19.103 42.667-42.667 42.667-12.043 0-22.92-4.989-30.678-13.014l-181.047-181.047c-7.718-7.721-12.492-18.386-12.492-30.165s4.774-22.445 12.492-30.165l181.035-181.035c7.665-7.41 18.12-11.977 29.641-11.977 23.564 0 42.667 19.103 42.667 42.667 0 11.521-4.567 21.976-11.989 29.653l-150.815 150.857zM512 21.333c-235.648 0-426.667 191.019-426.667 426.667s191.019 426.667 426.667 426.667 426.667-191.019 426.667-426.667-191.019-426.667-426.667-426.667z" />
<glyph unicode="&#xe91c;" glyph-name="arrow6" d="M512 21.333c-235.648 0-426.667 191.019-426.667 426.667s191.019 426.667 426.667 426.667 426.667-191.019 426.667-426.667-191.019-426.667-426.667-426.667zM512 106.667c188.513 0 341.333 152.82 341.333 341.333s-152.82 341.333-341.333 341.333v0c-188.513 0-341.333-152.82-341.333-341.333s152.82-341.333 341.333-341.333v0zM589.995 448l-150.827 150.869c-7.41 7.665-11.977 18.12-11.977 29.641 0 23.564 19.103 42.667 42.667 42.667 11.521 0 21.976-4.567 29.653-11.989l181.023-181.023c7.718-7.721 12.492-18.386 12.492-30.165s-4.774-22.445-12.492-30.165l-181.035-181.035c-7.769-8.036-18.647-13.026-30.69-13.026-23.564 0-42.667 19.103-42.667 42.667 0 12.043 4.989 22.92 13.014 30.678l150.839 150.881z" />
<glyph unicode="&#xe91d;" glyph-name="arrow5" d="M512 21.333c-235.648 0-426.667 191.019-426.667 426.667s191.019 426.667 426.667 426.667 426.667-191.019 426.667-426.667-191.019-426.667-426.667-426.667zM512 106.667c188.513 0 341.333 152.82 341.333 341.333s-152.82 341.333-341.333 341.333v0c-188.513 0-341.333-152.82-341.333-341.333s152.82-341.333 341.333-341.333v0zM434.005 448l150.827-150.869c7.41-7.665 11.977-18.12 11.977-29.641 0-23.564-19.103-42.667-42.667-42.667-11.521 0-21.976 4.567-29.653 11.989l-181.023 181.023c-7.718 7.721-12.492 18.386-12.492 30.165s4.774 22.445 12.492 30.165l181.035 181.035c7.665 7.41 18.12 11.977 29.641 11.977 23.564 0 42.667-19.103 42.667-42.667 0-11.521-4.567-21.976-11.989-29.653l-150.815-150.857z" />
<glyph unicode="&#xe91e;" glyph-name="align-justify_2" d="M256 661.333h512c23.564 0 42.667-19.103 42.667-42.667s-19.103-42.667-42.667-42.667v0h-512c-23.564 0-42.667 19.103-42.667 42.667s19.103 42.667 42.667 42.667v0zM256 320h512c23.564 0 42.667-19.103 42.667-42.667s-19.103-42.667-42.667-42.667v0h-512c-23.564 0-42.667 19.103-42.667 42.667s19.103 42.667 42.667 42.667v0zM256 490.667h512c23.564 0 42.667-19.103 42.667-42.667s-19.103-42.667-42.667-42.667v0h-512c-23.564 0-42.667 19.103-42.667 42.667s19.103 42.667 42.667 42.667v0z" />
<glyph unicode="&#xe91f;" glyph-name="alert1" d="M512 21.333c-235.648 0-426.667 191.019-426.667 426.667s191.019 426.667 426.667 426.667 426.667-191.019 426.667-426.667-191.019-426.667-426.667-426.667zM512 106.667c188.513 0 341.333 152.82 341.333 341.333s-152.82 341.333-341.333 341.333v0c-188.513 0-341.333-152.82-341.333-341.333s152.82-341.333 341.333-341.333v0zM512 661.333c23.564 0 42.667-19.103 42.667-42.667v0-213.333c0-23.564-19.103-42.667-42.667-42.667s-42.667 19.103-42.667 42.667v0 213.333c0 23.564 19.103 42.667 42.667 42.667v0zM512 234.667c-23.564 0-42.667 19.103-42.667 42.667s19.103 42.667 42.667 42.667v0c23.564 0 42.667-19.103 42.667-42.667s-19.103-42.667-42.667-42.667v0z" />
<glyph unicode="&#xe920;" glyph-name="plus6" d="M819.2 857.6h-614.4c-56.32 0-102.4-46.080-102.4-102.4v-614.4c0-56.32 46.080-102.4 102.4-102.4h614.4c56.32 0 102.4 46.080 102.4 102.4v614.4c0 56.32-46.080 102.4-102.4 102.4zM768 396.8h-204.8v-204.8h-102.4v204.8h-204.8v102.4h204.8v204.8h102.4v-204.8h204.8v-102.4z" />
<glyph unicode="&#xe921;" glyph-name="del7" d="M819.2 857.6h-614.4c-56.32 0-102.4-46.080-102.4-102.4v-614.4c0-56.32 46.080-102.4 102.4-102.4h614.4c56.32 0 102.4 46.080 102.4 102.4v614.4c0 56.32-46.080 102.4-102.4 102.4zM768 396.8h-512v102.4h512v-102.4z" />
<glyph unicode="&#xe922;" glyph-name="del5" d="M819.2 857.6h-614.4c-56.32 0-102.4-46.080-102.4-102.4v-614.4c0-56.32 46.080-102.4 102.4-102.4h614.4c56.32 0 102.4 46.080 102.4 102.4v614.4c0 56.32-46.080 102.4-102.4 102.4zM668.723 202.803l-156.723 156.672-156.723-156.672-88.525 88.474 156.723 156.723-156.672 156.723 88.525 88.525 156.672-156.723 156.621 156.723 88.525-88.525-156.621-156.723 156.672-156.723-88.474-88.474z" />
<glyph unicode="&#xe923;" glyph-name="stop2" d="M819.2 704.256v-502.17c0-33.843-27.443-61.286-61.235-61.286h-502.118c-28.192 0-51.046 22.854-51.046 51.046v0 502.118c0 33.792 27.443 61.235 61.235 61.235h502.17c28.16 0 50.995-22.835 50.995-50.944z" />
<glyph unicode="&#xe924;" glyph-name="circle6" d="M512 806.4c-1.266 0.016-2.761 0.025-4.258 0.025-197.939 0-358.4-160.461-358.4-358.4s160.461-358.4 358.4-358.4c1.515 0 3.028 0.009 4.539 0.028l-0.23-0.002c196.077 2.433 354.091 161.95 354.091 358.374 0 196.442-158.043 355.971-353.915 358.373l-0.227 0.002z" />
<glyph unicode="&#xe925;" glyph-name="triangle2" d="M768 447.949c0-15.309-15.616-26.317-15.616-26.317l-438.323-271.514c-31.949-20.941-58.061-5.427-58.061 34.253v527.206c0 39.782 26.112 55.194 58.112 34.304l438.323-271.616c-0.051 0 15.565-11.008 15.565-26.317z" />
<glyph unicode="&#xe926;" glyph-name="pause3" d="M768 806.4h-102.4c-28.314 0-51.2-2.458-51.2-30.72v-655.36c0-28.262 22.886-30.72 51.2-30.72h102.4c28.314 0 51.2 2.458 51.2 30.72v655.36c0 28.262-22.886 30.72-51.2 30.72zM358.4 806.4h-102.4c-28.314 0-51.2-2.458-51.2-30.72v-655.36c0-28.262 22.886-30.72 51.2-30.72h102.4c28.314 0 51.2 2.458 51.2 30.72v655.36c0 28.262-22.886 30.72-51.2 30.72z" />
<glyph unicode="&#xe927;" glyph-name="step12" d="M626.893 472.576l-368.794 253.389c-29.286 19.61-53.299 5.222-53.299-32v-491.981c0-37.12 24.013-51.507 53.299-32l368.794 253.491s14.285 10.189 14.285 24.474c0 14.336-14.285 24.627-14.285 24.627zM716.8 755.2h51.2c28.314 0 51.2-2.458 51.2-30.72v-552.96c0-28.262-22.886-30.72-51.2-30.72h-51.2c-28.314 0-51.2 2.458-51.2 30.72v552.96c0 28.262 22.886 30.72 51.2 30.72z" />
<glyph unicode="&#xe928;" glyph-name="step10" d="M765.901 725.965l-368.794-253.389s-14.285-10.291-14.285-24.627 14.285-24.525 14.285-24.525l368.794-253.491c29.286-19.456 53.299-5.069 53.299 32.051v491.981c0 37.222-24.013 51.61-53.299 32zM307.2 755.2h-51.2c-28.314 0-51.2-2.458-51.2-30.72v-552.96c0-28.262 22.886-30.72 51.2-30.72h51.2c28.314 0 51.2 2.458 51.2 30.72v552.96c0 28.262-22.886 30.72-51.2 30.72z" />
<glyph unicode="&#xe929;" glyph-name="step11" d="M473.293 472.576l-368.794 253.389c-29.286 19.61-53.299 5.222-53.299-32v-491.981c0-37.12 24.013-51.507 53.299-32l368.794 253.491s14.285 10.189 14.285 24.474c0 14.336-14.285 24.627-14.285 24.627zM952.32 447.949c0-14.285-14.285-24.474-14.285-24.474l-368.794-253.491c-29.286-19.507-53.299-5.12-53.299 32v491.981c0 37.222 24.013 51.61 53.299 32l368.742-253.389s14.336-10.291 14.336-24.627z" />
<glyph unicode="&#xe92a;" glyph-name="step9" d="M919.501 725.965l-368.794-253.389s-14.285-10.291-14.285-24.627 14.285-24.525 14.285-24.525l368.794-253.491c29.286-19.456 53.299-5.069 53.299 32.051v491.981c0 37.222-24.013 51.61-53.299 32zM454.81 725.965l-368.794-253.389s-14.285-10.291-14.285-24.627 14.285-24.525 14.285-24.525l368.794-253.491c29.286-19.507 53.299-5.12 53.299 32v492.032c0 37.222-24.013 51.61-53.299 32z" />
<glyph unicode="&#xe92b;" glyph-name="circle2" d="M512 939.52c-271.459 0-491.52-220.061-491.52-491.52v0c0.015-271.448 220.070-491.494 491.52-491.494 271.459 0 491.52 220.061 491.52 491.52 0 0.009 0 0.018 0 0.027v-0.002c0 271.411-220.109 491.469-491.52 491.469zM512 58.931c-1.327-0.016-2.894-0.026-4.463-0.026-214.905 0-389.12 174.215-389.12 389.12s174.215 389.12 389.12 389.12c1.57 0 3.137-0.009 4.702-0.028l-0.239 0.002c1.327 0.016 2.894 0.026 4.463 0.026 214.905 0 389.12-174.215 389.12-389.12s-174.215-389.12-389.12-389.12c-1.57 0-3.137 0.009-4.702 0.028l0.239-0.002z" />
<glyph unicode="&#xe92c;" glyph-name="plus4" d="M512 878.080c-237.527 0-430.080-192.553-430.080-430.080s192.553-430.080 430.080-430.080v0c237.527 0 430.080 192.553 430.080 430.080s-192.553 430.080-430.080 430.080v0zM768 396.8h-204.8v-204.8h-102.4v204.8h-204.8v102.4h204.8v204.8h102.4v-204.8h204.8v-102.4z" />
<glyph unicode="&#xe92d;" glyph-name="del6" d="M512 878.080c-237.527 0-430.080-192.553-430.080-430.080s192.553-430.080 430.080-430.080v0c237.527 0 430.080 192.553 430.080 430.080s-192.553 430.080-430.080 430.080v0zM768 396.8h-512v102.4h512v-102.4z" />
<glyph unicode="&#xe92e;" glyph-name="del1" d="M512 878.080c-237.527 0-430.080-192.553-430.080-430.080s192.553-430.080 430.080-430.080v0c237.527 0 430.080 192.553 430.080 430.080s-192.553 430.080-430.080 430.080v0zM757.197 291.277l-88.525-88.525-156.672 156.723-156.723-156.672-88.525 88.525 156.774 156.672-156.723 156.723 88.525 88.474 156.672-156.672 156.723 156.723 88.525-88.525-156.774-156.723 156.723-156.723z" />
<glyph unicode="&#xe92f;" glyph-name="arrow7" d="M530.381 561.408c-4.714 4.661-11.198 7.54-18.355 7.54s-13.641-2.879-18.358-7.542l0.002 0.002-146.637-143.718c-4.702-4.628-7.616-11.062-7.616-18.176s2.914-13.548 7.612-18.173l0.003-0.003c4.714-4.661 11.198-7.54 18.355-7.54s13.641 2.879 18.358 7.542l-0.002-0.002 128.256 117.862 128.307-117.862c4.728-4.652 11.219-7.524 18.381-7.524s13.653 2.872 18.384 7.527l-0.004-0.003c4.677 4.64 7.572 11.070 7.572 18.176s-2.895 13.536-7.571 18.174l-0.002 0.002-146.688 143.718zM512 939.52c-271.459 0-491.52-220.061-491.52-491.52v0c0-271.514 220.058-491.52 491.52-491.52s491.52 220.006 491.52 491.52c0 271.459-220.061 491.52-491.52 491.52v0zM512 20.275c-0.015 0-0.033 0-0.051 0-236.198 0-427.674 191.476-427.674 427.674 0 0.018 0 0.036 0 0.054v-0.002c0 236.226 191.499 427.725 427.725 427.725s427.725-191.499 427.725-427.725c0-236.226-191.499-427.725-427.725-427.725v0z" />
<glyph unicode="&#xe930;" glyph-name="arrow8" d="M563.2 448l-117.862 128.307c-4.652 4.728-7.524 11.219-7.524 18.381s2.872 13.653 7.527 18.384l-0.003-0.004c4.64 4.677 11.070 7.572 18.176 7.572s13.536-2.895 18.174-7.571l0.002-0.002 143.718-146.637c4.661-4.714 7.54-11.198 7.54-18.355s-2.879-13.641-7.542-18.358l0.002 0.002-143.718-146.637c-4.628-4.702-11.062-7.616-18.176-7.616s-13.548 2.914-18.173 7.612l-0.003 0.003c-4.661 4.714-7.54 11.198-7.54 18.355s2.879 13.641 7.542 18.358l-0.002-0.002 117.862 128.205zM512 939.52c271.459 0 491.52-220.061 491.52-491.52v0c0-271.514-220.058-491.52-491.52-491.52s-491.52 220.006-491.52 491.52c0 271.459 220.061 491.52 491.52 491.52v0zM512 20.275c236.24 0 427.75 191.51 427.75 427.75s-191.51 427.75-427.75 427.75v0c-236.24 0-427.75-191.51-427.75-427.75s191.51-427.75 427.75-427.75v0z" />
<glyph unicode="&#xe931;" glyph-name="arrow9" d="M578.662 613.069c-4.64 4.677-11.070 7.572-18.176 7.572s-13.536-2.895-18.174-7.571l-0.002-0.002-143.718-146.688c-4.661-4.714-7.54-11.198-7.54-18.355s2.879-13.641 7.542-18.358l-0.002 0.002 143.718-146.637c4.628-4.702 11.062-7.616 18.176-7.616s13.548 2.914 18.173 7.612l0.003 0.003c4.661 4.714 7.54 11.198 7.54 18.355s-2.879 13.641-7.542 18.358l0.002-0.002-117.862 128.256 117.862 128.307c4.652 4.728 7.524 11.219 7.524 18.381s-2.872 13.653-7.527 18.384l0.003-0.004zM512 939.52c-271.459 0-491.52-220.061-491.52-491.52v0c0-271.514 220.058-491.52 491.52-491.52s491.52 220.006 491.52 491.52c0 271.459-220.061 491.52-491.52 491.52v0zM512 20.275c-0.015 0-0.033 0-0.051 0-236.198 0-427.674 191.476-427.674 427.674 0 0.018 0 0.036 0 0.054v-0.002c0 236.226 191.499 427.725 427.725 427.725s427.725-191.499 427.725-427.725c0-236.226-191.499-427.725-427.725-427.725v0z" />
<glyph unicode="&#xe932;" glyph-name="arrow10" d="M640.256 514.662l-128.256-117.862-128.307 117.862c-4.728 4.652-11.219 7.524-18.381 7.524s-13.653-2.872-18.384-7.527l0.004 0.003c-4.677-4.64-7.572-11.070-7.572-18.176s2.895-13.536 7.571-18.174l0.002-0.002 146.637-143.718c4.714-4.661 11.198-7.54 18.355-7.54s13.641 2.879 18.358 7.542l-0.002-0.002 146.637 143.718c4.702 4.628 7.616 11.062 7.616 18.176s-2.914 13.548-7.612 18.173l-0.003 0.003c-4.712 4.646-11.186 7.515-18.33 7.515s-13.618-2.869-18.333-7.518l0.003 0.003zM512 939.52c-271.459 0-491.52-220.061-491.52-491.52v0c0-271.514 220.058-491.52 491.52-491.52s491.52 220.006 491.52 491.52c0 271.459-220.061 491.52-491.52 491.52v0zM512 20.275c-0.015 0-0.033 0-0.051 0-236.198 0-427.674 191.476-427.674 427.674 0 0.018 0 0.036 0 0.054v-0.002c0 236.226 191.499 427.725 427.725 427.725s427.725-191.499 427.725-427.725c0-236.226-191.499-427.725-427.725-427.725v0z" />
<glyph unicode="&#xe933;" glyph-name="arrow22" d="M792.781 322.458c-22.323-22.835-53.402-24.627-80.691 0l-200.090 191.846-200.090-191.846c-27.29-24.627-58.419-22.835-80.589 0-22.323 22.784-20.89 61.286 0 82.688 20.787 21.402 240.384 230.502 240.384 230.502 10.211 10.572 24.512 17.136 40.346 17.136s30.135-6.564 40.33-17.12l0.016-0.016s219.494-209.101 240.384-230.502c20.941-21.402 22.323-59.904 0-82.688z" />
<glyph unicode="&#xe934;" glyph-name="arrow12" d="M132.198 248.781c-13.926-13.722-36.301-13.722-50.125 0s-13.875 35.891 0 49.613l404.89 400.896c6.44 6.356 15.293 10.282 25.062 10.282s18.622-3.926 25.066-10.286l-0.004 0.004 404.89-400.896c6.413-6.319 10.387-15.098 10.387-24.806s-3.973-18.488-10.382-24.802l-0.004-0.004c-6.427-6.365-15.272-10.298-25.037-10.298s-18.61 3.933-25.040 10.301l0.003-0.003-379.904 365.619-379.802-365.619z" />
<glyph unicode="&#xe935;" glyph-name="arrow13" d="M678.4 448l-365.619 379.904c-6.356 6.44-10.282 15.293-10.282 25.062s3.926 18.622 10.286 25.066l-0.004-0.004c6.319 6.413 15.098 10.387 24.806 10.387s18.488-3.973 24.802-10.382l0.004-0.004 400.896-404.89c6.356-6.44 10.282-15.293 10.282-25.062s-3.926-18.622-10.286-25.066l0.004 0.004-400.896-404.89c-6.319-6.413-15.098-10.387-24.806-10.387s-18.488 3.973-24.802 10.382l-0.004 0.004c-6.356 6.44-10.282 15.293-10.282 25.062s3.926 18.622 10.286 25.066l-0.004-0.004 365.619 379.75z" />
<glyph unicode="&#xe936;" glyph-name="arrow14" d="M711.219 68.198c6.356-6.44 10.282-15.293 10.282-25.062s-3.926-18.622-10.286-25.066l0.004 0.004c-6.319-6.413-15.098-10.387-24.806-10.387s-18.488 3.973-24.802 10.382l-0.004 0.004-400.896 404.89c-6.356 6.44-10.282 15.293-10.282 25.062s3.926 18.622 10.286 25.066l-0.004-0.004 400.896 404.89c6.319 6.413 15.098 10.387 24.806 10.387s18.488-3.973 24.802-10.382l0.004-0.004c6.356-6.44 10.282-15.293 10.282-25.062s-3.926-18.622-10.286-25.066l0.004 0.004-365.619-379.853 365.619-379.802z" />
<glyph unicode="&#xe937;" glyph-name="arrow15" d="M891.802 647.219c6.44 6.356 15.293 10.282 25.062 10.282s18.622-3.926 25.066-10.286l-0.004 0.004c6.413-6.319 10.387-15.098 10.387-24.806s-3.973-18.488-10.382-24.802l-0.004-0.004-404.89-400.896c-6.44-6.356-15.293-10.282-25.062-10.282s-18.622 3.926-25.066 10.286l0.004-0.004-404.89 400.896c-6.413 6.319-10.387 15.098-10.387 24.806s3.973 18.488 10.382 24.802l0.004 0.004c6.44 6.356 15.293 10.282 25.062 10.282s18.622-3.926 25.066-10.286l-0.004 0.004 379.853-365.619 379.802 365.619z" />
<glyph unicode="&#xe938;" glyph-name="arrow16" d="M336.998 338.381c-6.427-6.365-15.272-10.298-25.037-10.298s-18.61 3.933-25.040 10.301l0.003-0.003c-6.413 6.319-10.387 15.098-10.387 24.806s3.973 18.488 10.382 24.802l0.004 0.004 200.090 196.096c6.44 6.356 15.293 10.282 25.062 10.282s18.622-3.926 25.066-10.286l-0.004 0.004 200.090-196.096c6.413-6.319 10.387-15.098 10.387-24.806s-3.973-18.488-10.382-24.802l-0.004-0.004c-6.44-6.356-15.293-10.282-25.062-10.282s-18.622 3.926-25.066 10.286l0.004-0.004-175.104 160.819-175.002-160.819z" />
<glyph unicode="&#xe939;" glyph-name="arrow17" d="M563.2 448l-160.819 175.104c-6.365 6.427-10.298 15.272-10.298 25.037s3.933 18.61 10.301 25.040l-0.003-0.003c6.319 6.413 15.098 10.387 24.806 10.387s18.488-3.973 24.802-10.382l0.004-0.004 196.096-200.090c6.356-6.44 10.282-15.293 10.282-25.062s-3.926-18.622-10.286-25.066l0.004 0.004-196.096-200.090c-6.319-6.413-15.098-10.387-24.806-10.387s-18.488 3.973-24.802 10.382l-0.004 0.004c-6.365 6.427-10.298 15.272-10.298 25.037s3.933 18.61 10.301 25.040l-0.003-0.003 160.819 175.053z" />
<glyph unicode="&#xe93a;" glyph-name="arrow18" d="M621.619 272.998c6.365-6.427 10.298-15.272 10.298-25.037s-3.933-18.61-10.301-25.040l0.003 0.003c-6.319-6.413-15.098-10.387-24.806-10.387s-18.488 3.973-24.802 10.382l-0.004 0.004-196.096 200.090c-6.356 6.44-10.282 15.293-10.282 25.062s3.926 18.622 10.286 25.066l-0.004-0.004 196.096 200.090c6.319 6.413 15.098 10.387 24.806 10.387s18.488-3.973 24.802-10.382l0.004-0.004c6.365-6.427 10.298-15.272 10.298-25.037s-3.933-18.61-10.301-25.040l0.003 0.003-160.819-175.155 160.819-175.002z" />
<glyph unicode="&#xe93b;" glyph-name="arrow19" d="M687.002 557.619c6.427 6.365 15.272 10.298 25.037 10.298s18.61-3.933 25.040-10.301l-0.003 0.003c6.413-6.319 10.387-15.098 10.387-24.806s-3.973-18.488-10.382-24.802l-0.004-0.004-200.090-196.096c-6.44-6.356-15.293-10.282-25.062-10.282s-18.622 3.926-25.066 10.286l0.004-0.004-200.090 196.096c-6.413 6.319-10.387 15.098-10.387 24.806s3.973 18.488 10.382 24.802l0.004 0.004c6.427 6.365 15.272 10.298 25.037 10.298s18.61-3.933 25.040-10.301l-0.003 0.003 175.155-160.819 175.002 160.819z" />
<glyph unicode="&#xe93c;" glyph-name="arrow23" d="M469.146 728.781c21.402-20.89 230.502-240.384 230.502-240.384 10.572-10.211 17.136-24.512 17.136-40.346s-6.564-30.135-17.12-40.33l-0.016-0.016s-209.101-219.597-230.502-240.384c-21.402-20.89-59.904-22.323-82.688 0-22.835 22.221-24.627 53.299 0 80.589l191.846 200.090-191.846 200.090c-24.627 27.29-22.835 58.419 0 80.691 22.784 22.323 61.286 20.941 82.688 0z" />
<glyph unicode="&#xe93d;" glyph-name="arrow20" d="M637.542 728.781c22.835-22.323 24.627-53.402 0-80.691l-191.846-200.090 191.846-200.090c24.627-27.29 22.835-58.419 0-80.589-22.784-22.323-61.286-20.89-82.688 0-21.402 20.787-230.502 240.384-230.502 240.384-10.572 10.211-17.136 24.512-17.136 40.346s6.564 30.135 17.12 40.33l0.016 0.016s209.101 219.494 230.502 240.384c21.402 20.941 59.904 22.323 82.688 0z" />
<glyph unicode="&#xe93e;" glyph-name="arrow24" d="M231.219 573.542c22.323 22.835 53.402 24.627 80.691 0l200.090-191.846 200.090 191.846c27.29 24.627 58.419 22.835 80.589 0 22.323-22.784 20.89-61.286 0-82.688-20.787-21.402-240.384-230.502-240.384-230.502-10.211-10.572-24.512-17.136-40.346-17.136s-30.135 6.564-40.33 17.12l-0.016 0.016s-219.494 209.101-240.384 230.502c-20.941 21.402-22.323 59.904 0 82.688z" />
<glyph unicode="&#xe93f;" glyph-name="check_3" d="M424.653 89.702c-22.272 0-43.366 10.394-56.883 28.314l-182.938 241.715c-9.027 11.815-14.464 26.793-14.464 43.041 0 23.14 11.027 43.704 28.114 56.723l0.174 0.127c11.827 9.057 26.829 14.513 43.106 14.513 23.161 0 43.742-11.048 56.76-28.162l0.128-0.175 120.371-158.925 302.643 485.99c12.843 20.293 35.169 33.571 60.597 33.571 13.987 0 27.035-4.017 38.054-10.961l-0.296 0.174c33.434-20.787 43.725-64.819 22.835-98.304l-357.581-573.952c-12.217-19.466-33.149-32.488-57.189-33.582l-0.155-0.006c-1.126-0.102-2.15-0.102-3.277-0.102z" />
<glyph unicode="&#xe941;" glyph-name="map1" d="M512 768.853c-90.015 0-162.987-72.972-162.987-162.987s72.972-162.987 162.987-162.987c90.015 0 162.987 72.972 162.987 162.987v0c0 90.015-72.972 162.987-162.987 162.987v0zM512 499.769c-58.596 0-106.098 47.502-106.098 106.098s47.502 106.098 106.098 106.098c58.596 0 106.098-47.502 106.098-106.098v0c-0.162-58.474-47.601-105.813-106.097-105.813 0 0 0 0 0 0v0zM512 903.111c-184.494-0.159-334.107-149.273-335.075-333.561v-0.092c0-132.836 74.524-244.053 129.138-325.12l9.956-14.791c59.73-86.18 117.082-160.334 177.893-231.441l-3.244 3.886 21.618-25.316 21.618 25.316c57.551 67.217 114.901 141.37 168.54 218.303l16.064 24.328c54.329 81.067 128.853 192 128.853 324.836-0.969 184.479-150.742 333.653-335.356 333.653-0.002 0-0.003 0-0.005 0h0.001zM671.004 277.333l-10.24-15.076c-48.924-73.387-113.778-155.591-148.764-196.267-33.564 40.676-99.84 122.88-148.764 196.267l-9.956 15.076c-50.347 75.093-119.467 177.778-119.467 293.262 0 153.638 124.548 278.187 278.187 278.187s278.187-124.548 278.187-278.187v0c0-116.622-68.836-219.307-119.182-293.262z" />
<glyph unicode="&#xe942;" glyph-name="tell1" d="M788.764-48.071c-10.094 0.029-19.907 1.167-29.342 3.299l0.898-0.171c-185.291 39.204-345.907 126.925-473.063 249.191l0.316-0.302c-124.559 122.565-214.695 279.761-254.805 455.983l-1.195 6.239c-1.759 8.029-2.767 17.251-2.767 26.708 0 37.448 15.8 71.206 41.098 94.97l0.069 0.064 113.778 109.511c10.169 9.633 23.937 15.556 39.089 15.556 1.66 0 3.303-0.071 4.927-0.21l-0.211 0.015c17.226-1.848 31.965-11.141 41.118-24.55l0.126-0.196 142.222-210.204c4.651-7.021 7.421-15.641 7.421-24.908 0-11.117-3.986-21.304-10.608-29.208l0.058 0.071-71.396-85.333c29.897-65.241 69.805-120.806 118.418-167.352l0.196-0.186c48.314-48.192 105.593-87.423 169.115-114.97l3.543-1.368 88.462 70.258c7.87 6.264 17.955 10.050 28.925 10.050 8.856 0 17.136-2.468 24.189-6.753l-0.207 0.117 214.756-138.809c16.72-10.11 27.725-28.192 27.725-48.845 0-15.409-6.126-29.387-16.076-39.631l0.013 0.014-110.933-109.796c-24.375-24.259-57.987-39.255-95.102-39.255-0.266 0-0.531 0.001-0.797 0.002h0.041zM223.004 856.462l-113.778-109.511c-14.166-13.226-22.995-32.011-22.995-52.858 0-5.459 0.606-10.777 1.753-15.891l-0.091 0.482c38.417-171.247 122.67-318.873 239.133-433.979l0.084-0.083c119.363-114.743 270.511-197.256 438.935-233.042l5.936-1.056c4.812-1.052 10.339-1.655 16.007-1.655 21.498 0 40.97 8.672 55.109 22.709l-0.005-0.005 110.933 109.796-207.36 133.973-95.004-75.662c-4.802-3.827-10.957-6.14-17.653-6.14-3.041 0-5.97 0.477-8.718 1.361l0.201-0.056c-81.959 30.707-151.846 76.724-209.281 135.040l-0.070 0.071c-59.646 55.806-106.769 124.215-137.214 201.048l-1.311 3.752c-0.628 2.23-0.99 4.792-0.99 7.437 0 7.595 2.977 14.495 7.828 19.597l-0.011-0.012 76.8 91.876z" />
<glyph unicode="&#xe943;" glyph-name="mail4" d="M910.222 789.333h-796.444c-31.419 0-56.889-25.47-56.889-56.889v0-568.889c0-31.419 25.47-56.889 56.889-56.889v0h796.444c31.419 0 56.889 25.47 56.889 56.889v0 568.889c0 31.419-25.47 56.889-56.889 56.889v0zM866.418 163.556h-705.422l199.111 205.938-40.96 39.538-205.369-212.48v492.658l353.564-351.858c10.283-10.224 24.457-16.543 40.107-16.543s29.824 6.319 40.109 16.546l-0.003-0.003 362.667 360.676v-497.778l-209.351 209.351-40.107-40.107zM151.040 732.444h713.102l-356.693-354.702z" />
<glyph unicode="&#xe944;" glyph-name="power1" d="M512 362.667c-15.709 0-28.444 12.735-28.444 28.444v0 455.111c0 15.709 12.735 28.444 28.444 28.444s28.444-12.735 28.444-28.444v0-455.111c0-15.709-12.735-28.444-28.444-28.444v0zM512-11.378c-0.311-0.001-0.678-0.001-1.046-0.001-235.641 0-426.667 191.025-426.667 426.667 0 157.288 85.109 294.697 211.787 368.688l2.023 1.092c3.824 2.041 8.365 3.24 13.185 3.24 15.709 0 28.444-12.735 28.444-28.444 0-10.046-5.208-18.876-13.072-23.937l-0.113-0.068c-111.309-65.126-184.889-184.089-184.889-320.237 0-204.223 165.555-369.778 369.778-369.778s369.778 165.555 369.778 369.778c0 136.148-73.58 255.111-183.144 319.292l-1.745 0.945c-9.141 4.855-15.26 14.315-15.26 25.204 0 15.709 12.735 28.444 28.444 28.444 5.663 0 10.94-1.655 15.372-4.508l-0.113 0.068c128.701-75.082 213.81-212.491 213.81-369.779 0-235.641-191.025-426.667-426.667-426.667-0.368 0-0.735 0-1.102 0.001h0.057z" />
<glyph unicode="&#xe945;" glyph-name="doc1" d="M622.649 846.222h-399.929c-28.919-0.79-52.060-24.421-52.060-53.457 0-0.307 0.003-0.613 0.008-0.918l-0.001 0.046v-687.787c-0.005-0.259-0.007-0.565-0.007-0.872 0-29.036 23.142-52.667 51.988-53.455l0.073-0.002h578.56c28.919 0.79 52.060 24.421 52.060 53.457 0 0.307-0.003 0.613-0.008 0.918l0.001-0.046v516.836zM614.116 775.396l170.667-167.822h-170.667zM227.556 106.667v682.667h341.333v-227.556h227.556v-455.111z" />
<glyph unicode="&#xe946;" glyph-name="window2" d="M796.444 732.444h-398.222c-31.419 0-56.889-25.47-56.889-56.889v0-56.889h56.889v56.889h398.222v-284.444h-56.889v-56.889h56.889c31.419 0 56.889 25.47 56.889 56.889v0 284.444c0 31.419-25.47 56.889-56.889 56.889v0zM625.778 561.778h-398.222c-31.419 0-56.889-25.47-56.889-56.889v0-284.444c0-31.419 25.47-56.889 56.889-56.889v0h398.222c31.419 0 56.889 25.47 56.889 56.889v0 284.444c0 31.419-25.47 56.889-56.889 56.889v0zM227.556 220.444v284.444h398.222v-284.444z" />
<glyph unicode="&#xe947;" glyph-name="copy2" d="M839.111 760.889h-540.444c-23.564 0-42.667-19.103-42.667-42.667v0-682.667c0-23.564 19.103-42.667 42.667-42.667v0h540.444c23.564 0 42.667 19.103 42.667 42.667v0 682.667c0 23.564-19.103 42.667-42.667 42.667v0zM824.889 49.778h-512v654.222h512zM739.556 860.444c0 23.564-19.103 42.667-42.667 42.667v0h-540.444c-23.564 0-42.667-19.103-42.667-42.667v0-682.667c0-23.564 19.103-42.667 42.667-42.667v0h14.222v711.111h568.889z" />
<glyph unicode="&#xe948;" glyph-name="help1" d="M512 903.111c-251.351 0-455.111-203.76-455.111-455.111s203.76-455.111 455.111-455.111c251.351 0 455.111 203.76 455.111 455.111v0c0 251.351-203.76 455.111-455.111 455.111v0zM512 49.778c-219.932 0-398.222 178.29-398.222 398.222s178.29 398.222 398.222 398.222c219.932 0 398.222-178.29 398.222-398.222v0c0-219.932-178.29-398.222-398.222-398.222v0zM520.249 706.276c-1.032 0.018-2.249 0.029-3.469 0.029-63.553 0-120.51-28.242-159.005-72.86l-0.228-0.271c-5.451-5.063-8.909-12.207-9.102-20.161l-0.001-0.035c0-0.004 0-0.009 0-0.014 0-14.453 11.716-26.169 26.169-26.169 0.3 0 0.599 0.005 0.897 0.015l-0.043-0.001c7.832 0.2 14.904 3.302 20.213 8.265l-0.017-0.016c29.883 34.867 73.953 56.836 123.155 56.889h0.009c67.129 0 108.942-43.236 108.942-96.996v-1.422c0-62.862-50.062-97.849-129.138-103.822-12.184-0.485-21.878-10.48-21.878-22.739 0-1.211 0.095-2.399 0.277-3.559l-0.017 0.129s0-65.991 0-78.222c1.494-14.438 13.594-25.6 28.302-25.6 0.050 0 0.1 0 0.15 0h3.121c14.438 1.494 25.6 13.594 25.6 28.302 0 0.050 0 0.1 0 0.15v-0.008 58.596c85.333 11.947 154.453 56.889 154.453 150.187v1.422c-0.853 85.333-67.413 147.911-168.391 147.911zM541.298 214.756c0-19.637-15.919-35.556-35.556-35.556s-35.556 15.919-35.556 35.556c0 19.637 15.919 35.556 35.556 35.556s35.556-15.919 35.556-35.556z" />
<glyph unicode="&#xe949;" glyph-name="arrow25" d="M512 903.111c-251.351 0-455.111-203.76-455.111-455.111s203.76-455.111 455.111-455.111c251.351 0 455.111 203.76 455.111 455.111v0c0 251.351-203.76 455.111-455.111 455.111v0zM512 49.778c-219.932 0-398.222 178.29-398.222 398.222s178.29 398.222 398.222 398.222c219.932 0 398.222-178.29 398.222-398.222v0c0-219.932-178.29-398.222-398.222-398.222v0zM514.276 725.049l-216.462-216.462c-6.102-5.248-9.943-12.978-9.943-21.605 0-15.709 12.735-28.444 28.444-28.444 8.627 0 16.357 3.841 21.573 9.905l0.031 0.037 145.636 145.067v-426.667c0-15.709 12.735-28.444 28.444-28.444s28.444 12.735 28.444 28.444v0 431.787l150.187-150.187c5.248-6.102 12.978-9.943 21.605-9.943 15.709 0 28.444 12.735 28.444 28.444 0 8.627-3.841 16.357-9.905 21.573l-0.037 0.031z" />
<glyph unicode="&#xe94a;" glyph-name="arrow11" d="M786.773 515.982l-274.773 273.351-274.773-273.351c-6.843-5.249-11.212-13.429-11.212-22.63 0-15.709 12.735-28.444 28.444-28.444 9.343 0 17.635 4.505 22.82 11.461l0.054 0.075 206.222 204.516v-544.142c0-15.709 12.735-28.444 28.444-28.444s28.444 12.735 28.444 28.444v0 544.142l206.222-204.516c5.143-5.108 12.23-8.265 20.053-8.265 15.718 0 28.46 12.742 28.46 28.46 0 7.894-3.214 15.038-8.406 20.194l-0.002 0.002z" />
<glyph unicode="&#xe94b;" glyph-name="circle1" d="M512 846.222c-219.932 0-398.222-178.29-398.222-398.222s178.29-398.222 398.222-398.222c219.932 0 398.222 178.29 398.222 398.222v0c0 219.932-178.29 398.222-398.222 398.222v0zM512 106.667c-188.513 0-341.333 152.82-341.333 341.333s152.82 341.333 341.333 341.333c188.513 0 341.333-152.82 341.333-341.333v0c0-188.513-152.82-341.333-341.333-341.333v0z" />
<glyph unicode="&#xe94c;" glyph-name="plus2" d="M744.391 476.444h-203.947v203.947c0 15.709-12.735 28.444-28.444 28.444s-28.444-12.735-28.444-28.444v0-203.947h-203.947c-15.709 0-28.444-12.735-28.444-28.444s12.735-28.444 28.444-28.444v0h203.947v-203.947c0-15.709 12.735-28.444 28.444-28.444s28.444 12.735 28.444 28.444v0 203.947h203.947c15.709 0 28.444 12.735 28.444 28.444s-12.735 28.444-28.444 28.444v0zM512 903.111c-251.351 0-455.111-203.76-455.111-455.111s203.76-455.111 455.111-455.111c251.351 0 455.111 203.76 455.111 455.111v0c0 251.351-203.76 455.111-455.111 455.111v0zM512 49.778c-219.932 0-398.222 178.29-398.222 398.222s178.29 398.222 398.222 398.222c219.932 0 398.222-178.29 398.222-398.222v0c0-219.932-178.29-398.222-398.222-398.222v0z" />
<glyph unicode="&#xe94d;" glyph-name="del2" d="M557.796 448l138.24 138.24c4.251 4.941 6.84 11.419 6.84 18.502 0 15.709-12.735 28.444-28.444 28.444-7.083 0-13.56-2.589-18.539-6.871l0.037 0.031-138.24-136.818-139.093 139.093c-4.941 4.251-11.419 6.84-18.502 6.84-15.709 0-28.444-12.735-28.444-28.444 0-7.083 2.589-13.56 6.871-18.539l-0.031 0.037 138.809-140.516-135.964-134.258c-6.102-5.248-9.943-12.978-9.943-21.605 0-15.709 12.735-28.444 28.444-28.444 8.627 0 16.357 3.841 21.573 9.905l0.031 0.037 135.68 135.68 134.827-134.827c4.941-4.251 11.419-6.84 18.502-6.84 15.709 0 28.444 12.735 28.444 28.444 0 7.083-2.589 13.56-6.871 18.539l0.031-0.037zM512-7.111c-251.351 0-455.111 203.76-455.111 455.111s203.76 455.111 455.111 455.111c251.351 0 455.111-203.76 455.111-455.111v0c0-251.351-203.76-455.111-455.111-455.111v0zM512 846.222c-219.932 0-398.222-178.29-398.222-398.222s178.29-398.222 398.222-398.222c219.932 0 398.222 178.29 398.222 398.222v0c0 219.932-178.29 398.222-398.222 398.222v0z" />
<glyph unicode="&#xe94e;" glyph-name="window1" d="M768 21.333h-625.778c-31.419 0-56.889 25.47-56.889 56.889v0 625.778c0 31.419 25.47 56.889 56.889 56.889v0h284.444v-56.889h-284.444v-625.778h625.778v284.444h56.889v-284.444c0-31.419-25.47-56.889-56.889-56.889v0zM512 874.667c-15.709 0-28.444-12.735-28.444-28.444s12.735-28.444 28.444-28.444v0h329.671l-393.956-393.956c-6.102-5.248-9.943-12.978-9.943-21.605 0-15.709 12.735-28.444 28.444-28.444 8.627 0 16.357 3.841 21.573 9.905l0.031 0.037 393.956 393.956v-329.671c0-15.709 12.735-28.444 28.444-28.444s28.444 12.735 28.444 28.444v0 426.667z" />
<glyph unicode="&#xe94f;" glyph-name="unlock2" d="M341.333 244.907v-81.351h56.889v78.791c25.541 10.445 43.208 35.103 43.208 63.887 0 38.017-30.819 68.836-68.836 68.836s-68.836-30.819-68.836-68.836c0-26.607 15.096-49.689 37.191-61.147l0.383-0.181zM739.556 903.111c-126.367-3.155-227.601-106.343-227.601-233.176 0-1.624 0.017-3.245 0.050-4.861l-0.004 0.242v-131.982h-455.111v-483.556c0-31.419 25.47-56.889 56.889-56.889v0h512c31.419 0 56.889 25.47 56.889 56.889v0 483.556h-113.778v131.982c-0.039 1.382-0.061 3.009-0.061 4.641 0 95.419 75.781 173.139 170.441 176.258l0.286 0.007c94.947-3.126 170.728-80.846 170.728-176.266 0-1.632-0.022-3.259-0.066-4.88l0.005 0.239v-194.276c0-15.709 12.735-28.444 28.444-28.444s28.444 12.735 28.444 28.444v0 194.276c0.029 1.375 0.046 2.995 0.046 4.619 0 126.833-101.235 230.022-227.309 233.17l-0.292 0.006zM625.778 476.444v-426.667h-512v426.667z" />
<glyph unicode="&#xe950;" glyph-name="lock3" d="M514.56 374.329c-37.636-0.294-68.032-30.872-68.032-68.549 0-26.343 14.859-49.215 36.653-60.693l0.375-0.18v-81.351h56.889v78.791c25.182 10.518 42.556 34.946 42.556 63.431 0 37.821-30.628 68.488-68.435 68.551h-0.006zM739.556 533.333v121.742c0.029 1.375 0.046 2.995 0.046 4.619 0 126.833-101.235 230.022-227.309 233.17l-0.292 0.006c-126.367-3.155-227.601-106.343-227.601-233.176 0-1.624 0.017-3.245 0.050-4.861l-0.004 0.242v-121.742h-85.333v-483.556c0-31.419 25.47-56.889 56.889-56.889v0h512c31.419 0 56.889 25.47 56.889 56.889v0 483.556zM341.333 655.076c-0.039 1.382-0.061 3.009-0.061 4.641 0 95.419 75.781 173.139 170.441 176.258l0.286 0.007c94.947-3.126 170.728-80.846 170.728-176.266 0-1.632-0.022-3.259-0.066-4.88l0.005 0.239v-121.742h-341.333zM256 49.778v426.667h512v-426.667z" />
<glyph unicode="&#xe951;" glyph-name="bubble1" d="M512 888.889c-250.88 0-455.111-178.631-455.111-398.222s204.231-398.222 455.111-398.222c49.45 0.059 97.228 7.119 142.426 20.242l-3.618-0.9 157.298-100.124c4.342-2.824 9.655-4.504 15.36-4.504 15.693 0 28.417 12.708 28.444 28.395v191.434c69.441 66.694 112.862 160.028 113.777 263.511l0.001 0.169c1.422 219.591-202.809 398.222-453.689 398.222zM804.693 259.982c-5.584-5.19-9.075-12.567-9.102-20.759v-151.898l-124.587 79.36c-4.306 2.761-9.561 4.401-15.198 4.401-3.002 0-5.895-0.465-8.612-1.327l0.201 0.055c-40.365-12.991-86.803-20.48-134.989-20.48-0.143 0-0.286 0-0.429 0h0.023c-219.591 0-398.222 153.031-398.222 341.333s178.631 341.333 398.222 341.333 398.222-153.031 398.222-341.333c-1.405-91.707-41.765-173.717-105.222-230.415l-0.306-0.269zM512 373.191c15.709 0 28.444 12.735 28.444 28.444v0 317.156c0 15.709-12.735 28.444-28.444 28.444s-28.444-12.735-28.444-28.444v0-316.587c-0.004-0.169-0.006-0.369-0.006-0.569 0-15.709 12.735-28.444 28.444-28.444 0.002 0 0.004 0 0.006 0v0zM549.831 276.196c0-20.894-16.938-37.831-37.831-37.831s-37.831 16.938-37.831 37.831c0 20.894 16.938 37.831 37.831 37.831s37.831-16.938 37.831-37.831z" />
<glyph unicode="&#xe952;" glyph-name="user2" d="M512 476.444c109.966 0 199.111 89.145 199.111 199.111s-89.145 199.111-199.111 199.111c-109.966 0-199.111-89.145-199.111-199.111v0c0-109.966 89.145-199.111 199.111-199.111v0zM512 817.778c78.547 0 142.222-63.675 142.222-142.222s-63.675-142.222-142.222-142.222c-78.547 0-142.222 63.675-142.222 142.222v0c0 78.547 63.675 142.222 142.222 142.222v0zM866.702 266.809c-89.165 94.093-215.025 152.644-354.56 152.644s-265.395-58.55-354.352-152.423l-0.208-0.221c-9.515-10.144-15.36-23.83-15.36-38.881 0-0.031 0-0.062 0-0.093v0.005-149.618c0-31.419 25.47-56.889 56.889-56.889v0h625.778c31.419 0 56.889 25.47 56.889 56.889v0 149.618c0.001 0.117 0.001 0.255 0.001 0.393 0 14.905-5.732 28.471-15.112 38.614l0.035-0.038zM824.889 78.222h-625.778v149.902c78.781 82.835 189.818 134.358 312.889 134.358s234.108-51.523 312.718-134.177l0.171-0.181z" />
<glyph unicode="&#xe953;" glyph-name="ellipsis3" d="M967.111 448c0-45.557-36.932-82.489-82.489-82.489s-82.489 36.932-82.489 82.489c0 45.557 36.932 82.489 82.489 82.489s82.489-36.932 82.489-82.489zM594.489 448c0-45.557-36.932-82.489-82.489-82.489s-82.489 36.932-82.489 82.489c0 45.557 36.932 82.489 82.489 82.489s82.489-36.932 82.489-82.489zM221.867 448c0-45.557-36.932-82.489-82.489-82.489s-82.489 36.932-82.489 82.489c0 45.557 36.932 82.489 82.489 82.489s82.489-36.932 82.489-82.489z" />
<glyph unicode="&#xe954;" glyph-name="arrow21" d="M839.68 319.431l-327.68 339.058-327.68-339.058c-8.376-8.686-13.536-20.523-13.536-33.564 0-26.72 21.661-48.381 48.381-48.381 13.678 0 26.031 5.676 34.83 14.802l0.014 0.015 257.991 267.093 258.276-267.093c8.814-9.14 21.166-14.816 34.844-14.816 26.72 0 48.381 21.661 48.381 48.381 0 13.042-5.16 24.878-13.55 33.579l0.014-0.015z" />
<glyph unicode="&#xe955;" glyph-name="alert3" d="M549.831 218.738c0-20.894-16.938-37.831-37.831-37.831s-37.831 16.938-37.831 37.831c0 20.894 16.938 37.831 37.831 37.831s37.831-16.938 37.831-37.831zM512 316.871c-15.709 0-28.444 12.735-28.444 28.444v0 341.333c0 15.709 12.735 28.444 28.444 28.444s28.444-12.735 28.444-28.444v0-341.333c0-15.709-12.735-28.444-28.444-28.444v0zM428.432 912.179c16.151 29.353 46.9 47.53 80.296 47.53s64.146-18.177 80.317-47.568l395.093-727.040c15.421-28.377 14.757-62.777-1.747-90.538s-46.408-44.777-78.712-44.786l-789.265 0.007c-32.663-0.732-63.242 15.991-80.251 43.885s-17.871 62.737-2.247 91.469l396.516 727.040zM81.878 157.931c-5.914-10.875-5.587-24.076 0.858-34.644s18.030-16.904 31.043-16.62h789.895c12.236 0.003 23.567 6.451 29.82 16.969s6.505 23.552 0.662 34.303l-395.022 726.909c-6.1 11.086-17.75 17.973-30.404 17.973-12.638 0-24.276-6.871-30.382-17.933l-396.47-726.956z" />
<glyph unicode="&#xe956;" glyph-name="alert4" d="M512 353.564c20.422 0 36.978 16.556 36.978 36.978v171.236c0 20.422-16.556 36.978-36.978 36.978s-36.978-16.556-36.978-36.978v0-170.667c-0.003-0.169-0.004-0.369-0.004-0.569 0-20.422 16.556-36.978 36.978-36.978 0.002 0 0.003 0 0.005 0v0zM862.72 233.529l-277.049 510.293c-14.762 26.734-42.777 44.54-74.951 44.54s-60.189-17.806-74.729-44.101l-0.223-0.439-277.333-510.293c-6.788-11.965-10.788-26.28-10.788-41.531 0-47.128 38.205-85.333 85.333-85.333 0.193 0 0.385 0.001 0.578 0.002h554.069c0.023 0 0.051 0 0.078 0 47.128 0 85.333 38.205 85.333 85.333 0 14.907-3.822 28.922-10.541 41.116l0.223-0.441zM812.089 178.347c-5.045-8.401-14.107-13.936-24.462-13.938h-554.098c-0.023 0-0.050 0-0.078 0-15.709 0-28.444 12.735-28.444 28.444 0 5.007 1.294 9.712 3.565 13.799l-0.074-0.145 277.049 510.293c4.907 8.96 14.271 14.934 25.031 14.934s20.124-5.974 24.957-14.786l0.074-0.148 277.049-510.293c2.173-3.924 3.452-8.603 3.452-13.581 0-5.382-1.495-10.415-4.092-14.706l0.071 0.127zM553.244 269.653c0-23.564-19.103-42.667-42.667-42.667s-42.667 19.103-42.667 42.667c0 23.564 19.103 42.667 42.667 42.667s42.667-19.103 42.667-42.667z" />
<glyph unicode="&#xe957;" glyph-name="del3" d="M552.107 448l235.804 235.804c4.251 4.941 6.84 11.419 6.84 18.502 0 15.709-12.735 28.444-28.444 28.444-7.083 0-13.56-2.589-18.539-6.871l0.037 0.031-235.804-235.804-235.804 236.089c-5.168 5.168-12.309 8.365-20.196 8.365-15.774 0-28.561-12.787-28.561-28.561 0-7.887 3.197-15.027 8.365-20.196v0l236.089-235.804-236.089-235.804c-6.102-5.248-9.943-12.978-9.943-21.605 0-15.709 12.735-28.444 28.444-28.444 8.627 0 16.357 3.841 21.573 9.905l0.031 0.037 236.089 235.804 235.804-235.804c4.941-4.251 11.419-6.84 18.502-6.84 15.709 0 28.444 12.735 28.444 28.444 0 7.083-2.589 13.56-6.871 18.539l0.031-0.037z" />
<glyph unicode="&#xe958;" glyph-name="gear1" d="M514.844 647.111c-110.933 0-199.111-88.178-199.111-199.111s88.178-199.111 199.111-199.111c110.933 0 199.111 88.178 199.111 199.111s-88.178 199.111-199.111 199.111zM514.844 305.778c-79.644 0-142.222 62.578-142.222 142.222s62.578 142.222 142.222 142.222c79.644 0 142.222-62.578 142.222-142.222s-62.578-142.222-142.222-142.222zM932.978 541.867l-79.644 25.6-17.067 42.667 39.822 73.956c8.533 17.067 5.689 39.822-8.533 54.044l-68.267 68.267c-14.222 14.222-36.978 17.067-54.044 8.533l-73.956-39.822-42.667 17.067-25.6 79.644c-5.689 17.067-22.756 31.289-42.667 31.289h-96.711c-19.911 0-36.978-14.222-39.822-34.133l-25.6-79.644c-17.067-2.844-31.289-8.533-45.511-17.067l-73.956 39.822c-17.067 8.533-39.822 5.689-54.044-8.533l-68.267-68.267c-14.222-14.222-17.067-36.978-8.533-54.044l36.978-71.111c-5.689-14.222-11.378-31.289-17.067-45.511l-79.644-25.6c-17.067-5.689-31.289-22.756-31.289-42.667v-96.711c0-19.911 14.222-36.978 34.133-42.667l79.644-25.6 17.067-42.667-39.822-73.956c-8.533-17.067-5.689-39.822 8.533-54.044l68.267-68.267c14.222-14.222 36.978-17.067 54.044-8.533l73.956 39.822 42.667-17.067 25.6-82.489c5.689-17.067 22.756-31.289 42.667-31.289h96.711c19.911 0 36.978 14.222 42.667 31.289l25.6 82.489 42.667 17.067 73.956-39.822c17.067-8.533 39.822-5.689 54.044 8.533l68.267 68.267c14.222 14.222 17.067 36.978 8.533 54.044l-39.822 73.956 17.067 42.667 82.489 25.6c17.067 5.689 31.289 22.756 31.289 42.667v96.711c0 19.911-14.222 39.822-34.133 45.511zM910.222 408.178l-102.4-31.289-2.844-14.222c-8.533-19.911-17.067-39.822-25.6-59.733l-8.533-14.222 51.2-93.867-56.889-56.889-93.867 51.2-14.222-8.533c-19.911-11.378-39.822-19.911-59.733-25.6l-14.222-2.844-31.289-102.4h-79.644l-31.289 102.4-14.222 2.844c-19.911 8.533-39.822 17.067-59.733 25.6l-14.222 8.533-93.867-51.2-56.889 56.889 51.2 93.867-8.533 14.222c-11.378 19.911-19.911 39.822-25.6 59.733l-2.844 14.222-102.4 31.289v79.644l96.711 28.444 5.689 14.222c5.689 22.756 14.222 42.667 25.6 62.578l8.533 14.222-48.356 93.867 56.889 56.889 91.022-51.2 14.222 8.533c19.911 11.378 39.822 19.911 62.578 25.6l14.222 5.689 31.289 99.556h79.644l31.289-99.556 14.222-5.689c19.911-5.689 39.822-14.222 59.733-25.6l14.222-8.533 93.867 51.2 56.889-56.889-51.2-93.867 8.533-14.222c11.378-19.911 19.911-39.822 25.6-59.733l2.844-14.222 102.4-31.289v-79.644z" />
<glyph unicode="&#xe959;" glyph-name="check" d="M390.258 172.373l-296.676 296.391c-4.251 4.941-6.84 11.419-6.84 18.502 0 15.709 12.735 28.444 28.444 28.444 7.083 0 13.56-2.589 18.539-6.871l-0.037 0.031 256-256 500.338 499.769c4.941 4.251 11.419 6.84 18.502 6.84 15.709 0 28.444-12.735 28.444-28.444 0-7.083-2.589-13.56-6.871-18.539l0.031 0.037z" />
<glyph unicode="&#xe95a;" glyph-name="info4" d="M549.831 621.511c0-21.993-17.829-39.822-39.822-39.822s-39.822 17.829-39.822 39.822c0 21.993 17.829 39.822 39.822 39.822s39.822-17.829 39.822-39.822zM597.333 305.778h-56.889v227.556h-85.333c-15.709 0-28.444-12.735-28.444-28.444s12.735-28.444 28.444-28.444v0h28.444v-170.667h-56.889c-15.709 0-28.444-12.735-28.444-28.444s12.735-28.444 28.444-28.444v0h170.667c15.709 0 28.444 12.735 28.444 28.444s-12.735 28.444-28.444 28.444v0zM512 789.333c-188.513 0-341.333-152.82-341.333-341.333s152.82-341.333 341.333-341.333c188.513 0 341.333 152.82 341.333 341.333v0c0 188.513-152.82 341.333-341.333 341.333v0zM512 163.556c-157.094 0-284.444 127.35-284.444 284.444s127.35 284.444 284.444 284.444c157.094 0 284.444-127.35 284.444-284.444v0c0-157.094-127.35-284.444-284.444-284.444v0z" />
<glyph unicode="&#xe95b;" glyph-name="alert5" d="M585.143 174.286v108.571q0 8-5.429 13.429t-12.857 5.429h-109.714q-7.429 0-12.857-5.429t-5.429-13.429v-108.571q0-8 5.429-13.429t12.857-5.429h109.714q7.429 0 12.857 5.429t5.429 13.429zM584 388l10.286 262.286q0 6.857-5.714 10.857-7.429 6.286-13.714 6.286h-125.714q-6.286 0-13.714-6.286-5.714-4-5.714-12l9.714-261.143q0-5.714 5.714-9.429t13.714-3.714h105.714q8 0 13.429 3.714t6 9.429zM576 921.714l438.857-804.571q20-36-1.143-72-9.714-16.571-26.571-26.286t-36.286-9.714h-877.714q-19.429 0-36.286 9.714t-26.571 26.286q-21.143 36-1.143 72l438.857 804.571q9.714 17.714 26.857 28t37.143 10.286 37.143-10.286 26.857-28z" />
<glyph unicode="&#xe95c;" glyph-name="info3" d="M512 21.333c-235.648 0-426.667 191.019-426.667 426.667s191.019 426.667 426.667 426.667 426.667-191.019 426.667-426.667-191.019-426.667-426.667-426.667zM512 533.333c-23.564 0-42.667-19.103-42.667-42.667v0-213.333c0-23.564 19.103-42.667 42.667-42.667s42.667 19.103 42.667 42.667v0 213.333c0 23.564-19.103 42.667-42.667 42.667v0zM512 576c23.564 0 42.667 19.103 42.667 42.667s-19.103 42.667-42.667 42.667v0c-23.564 0-42.667-19.103-42.667-42.667s19.103-42.667 42.667-42.667v0z" />
<glyph unicode="&#xe95d;" glyph-name="info2" d="M682.665 128v106.665q0 9.332-5.998 15.331t-15.331 5.998h-64v341.335q0 9.332-5.998 15.331t-15.331 5.998h-213.335q-9.332 0-15.331-5.998t-5.998-15.331v-106.665q0-9.332 5.998-15.331t15.331-5.998h64v-213.335h-64q-9.332 0-15.331-5.998t-5.998-15.331v-106.665q0-9.332 5.998-15.331t15.331-5.998h298.665q9.332 0 15.331 5.998t5.998 15.331zM597.336 725.335v106.665q0 9.332-5.998 15.331t-15.331 5.998h-128q-9.332 0-15.331-5.998t-5.998-15.331v-106.665q0-9.332 5.998-15.331t15.331-5.998h128q9.332 0 15.331 5.998t5.998 15.331zM1024 448q0-139.335-68.666-256.998t-186.336-186.336-256.998-68.666-256.998 68.666-186.336 186.336-68.666 256.998 68.666 256.998 186.336 186.336 256.998 68.666 256.998-68.666 186.336-186.336 68.666-256.998z" />
<glyph unicode="&#xe95e;" glyph-name="mail2" d="M1008 953.714q18.857-13.714 15.429-36.571l-146.286-877.714q-2.857-16.571-18.286-25.714-8-4.571-17.714-4.571-6.286 0-13.714 2.857l-301.143 122.857-170.286-186.857q-10.286-12-26.857-12-8 0-13.143 2.286-10.857 4-17.143 13.429t-6.286 20.857v258.286l-269.714 110.286q-21.143 8-22.857 31.429-1.714 22.286 18.286 33.714l950.857 548.571q20 12 38.857-1.143zM812.571 97.143l126.286 756-819.429-472.571 192-78.286 493.143 365.143-273.143-455.429z" />
<glyph unicode="&#xe95f;" glyph-name="mail1" d="M1008 953.714q18.857-13.714 15.429-36.571l-146.286-877.714q-2.857-16.571-18.286-25.714-8-4.571-17.714-4.571-6.286 0-13.714 2.857l-258.857 105.714-138.286-168.571q-10.286-13.143-28-13.143-7.429 0-12.571 2.286-10.857 4-17.429 13.429t-6.571 20.857v199.429l493.714 605.143-610.857-528.571-225.714 92.571q-21.143 8-22.857 31.429-1.143 22.857 18.286 33.714l950.857 548.571q8.571 5.143 18.286 5.143 11.429 0 20.571-6.286z" />
<glyph unicode="&#xe960;" glyph-name="minus" d="M739.556 476.444h-455.111c-15.709 0-28.444-12.735-28.444-28.444s12.735-28.444 28.444-28.444v0h455.111c15.709 0 28.444 12.735 28.444 28.444s-12.735 28.444-28.444 28.444v0z" />
<glyph unicode="&#xe961;" glyph-name="plus3" d="M853.333 476.444h-312.889v312.889c0 15.709-12.735 28.444-28.444 28.444s-28.444-12.735-28.444-28.444v0-312.889h-312.889c-15.709 0-28.444-12.735-28.444-28.444v0c-0.012-0.293-0.019-0.637-0.019-0.982 0-14.296 11.589-25.884 25.884-25.884 0.908 0 1.805 0.047 2.689 0.138l-0.111-0.009h312.889v-314.596c0-15.709 12.735-28.444 28.444-28.444s28.444 12.735 28.444 28.444v0 312.889h312.889c15.709 0 28.444 12.735 28.444 28.444v0c0 15.709-12.735 28.444-28.444 28.444v0z" />
<glyph unicode="&#xe962;" glyph-name="info1" d="M512 960c-282.752 0-512-229.248-512-512s229.248-512 512-512 512 229.248 512 512-229.248 512-512 512zM511.957 714.667c29.44 0 53.376-23.893 53.376-53.333s-23.936-53.333-53.376-53.333-53.291 23.893-53.291 53.333 23.851 53.333 53.291 53.333zM597.333 192h-170.667v42.667c20.651 7.637 42.667 8.576 42.667 31.36v190.592c0 22.784-22.016 26.368-42.667 34.005v42.667h128v-267.307c0-22.827 22.059-23.808 42.667-31.36v-42.624z" />
<glyph unicode="&#xe963;" glyph-name="arrow3" d="M512 483.328l150.869-150.827c7.665-7.41 18.12-11.977 29.641-11.977 23.564 0 42.667 19.103 42.667 42.667 0 11.521-4.567 21.976-11.989 29.653l-181.023 181.023c-7.721 7.718-18.386 12.492-30.165 12.492s-22.445-4.774-30.165-12.492l-181.035-181.035c-7.41-7.665-11.977-18.12-11.977-29.641 0-23.564 19.103-42.667 42.667-42.667 11.521 0 21.976 4.567 29.653 11.989l150.857 150.815zM256 874.667h512c94.257 0 170.667-76.41 170.667-170.667v0-512c0-94.257-76.41-170.667-170.667-170.667v0h-512c-94.257 0-170.667 76.41-170.667 170.667v0 512c0 94.257 76.41 170.667 170.667 170.667v0z" />
<glyph unicode="&#xe964;" glyph-name="arrow4" d="M512 483.328l150.869-150.827c7.665-7.41 18.12-11.977 29.641-11.977 23.564 0 42.667 19.103 42.667 42.667 0 11.521-4.567 21.976-11.989 29.653l-181.023 181.023c-7.721 7.718-18.386 12.492-30.165 12.492s-22.445-4.774-30.165-12.492l-181.035-181.035c-7.41-7.665-11.977-18.12-11.977-29.641 0-23.564 19.103-42.667 42.667-42.667 11.521 0 21.976 4.567 29.653 11.989l150.857 150.815zM512 21.333c-235.648 0-426.667 191.019-426.667 426.667s191.019 426.667 426.667 426.667 426.667-191.019 426.667-426.667-191.019-426.667-426.667-426.667z" />
<glyph unicode="&#xe966;" glyph-name="pdf2" d="M756.826 960h-366.596l-294.818-294.832v-557.38c0-94.72 77.056-171.79 171.792-171.79h489.622c94.706 0 171.762 77.070 171.762 171.79v680.42c0 94.736-77.056 171.792-171.762 171.792zM864.994 107.79c0-59.754-48.428-108.182-108.168-108.182h-489.622c-59.768 0-108.196 48.428-108.196 108.182v531.028h167.432c49.77 0 90.154 40.356 90.154 90.14v167.434h340.232c59.74 0 108.168-48.428 108.168-108.184v-680.418zM343.894 454.43h-57.058c-10.864 0-17.372-7.066-17.372-17.65v-147.508c0-12.776 8.408-21.198 20.082-21.198 11.422 0 19.828 8.42 19.828 21.198v44.812c0 1.090 0.558 1.634 1.648 1.634h32.872c40.19 0 64.376 24.452 64.376 59.224 0.002 35.316-23.906 59.488-64.376 59.488zM341.438 370.224h-30.416c-1.090 0-1.648 0.544-1.648 1.62v46.46c0 1.090 0.558 1.632 1.648 1.632h30.416c16.84 0 26.894-10.054 26.894-24.996 0.002-14.94-10.054-24.716-26.894-24.716zM500.382 454.43h-43.736c-10.864 0-17.372-7.066-17.372-17.65v-149.686c0-10.6 6.506-17.386 17.372-17.386h43.736c39.38 0 63.846 12.498 73.62 42.648 3.52 10.6 5.446 23.362 5.446 49.714 0 26.35-1.928 39.114-5.446 49.712-9.776 30.15-34.24 42.648-73.62 42.648zM535.712 326.208c-4.636-14.662-17.93-20.918-36.42-20.918h-18.46c-1.090 0-1.648 0.544-1.648 1.632v110.292c0 1.090 0.558 1.634 1.648 1.634h18.46c18.49 0 31.784-6.256 36.42-20.92 1.9-6.256 3.24-17.12 3.24-35.86s-1.342-29.604-3.24-35.86zM722.334 454.43h-89.624c-10.864 0-17.4-7.066-17.4-17.65v-147.508c0-12.776 8.436-21.198 20.11-21.198 11.394 0 19.828 8.42 19.828 21.198v52.702c0 1.076 0.53 1.62 1.62 1.62h52.172c11.674 0 18.46 7.064 18.46 17.12s-6.786 17.106-18.46 17.106h-52.172c-1.090 0-1.62 0.544-1.62 1.634v38.85c0 1.090 0.53 1.632 1.62 1.632h65.466c11.144 0 18.49 7.332 18.49 17.106-0.002 10.058-7.348 17.388-18.49 17.388z" />
<glyph unicode="&#xe967;" glyph-name="info8" d="M512 960c-282.752 0-512-229.248-512-512s229.248-512 512-512 512 229.248 512 512-229.248 512-512 512zM511.957 714.667c29.44 0 53.376-23.893 53.376-53.333s-23.936-53.333-53.376-53.333-53.291 23.893-53.291 53.333 23.851 53.333 53.291 53.333zM597.333 192h-170.667v42.667c20.651 7.637 42.667 8.576 42.667 31.36v190.592c0 22.784-22.016 26.368-42.667 34.005v42.667h128v-267.307c0-22.827 22.059-23.808 42.667-31.36v-42.624z" />
<glyph unicode="&#xf001;" glyph-name="music1" horiz-adv-x="878" d="M877.714 822.857v-640c0-80.571-120.571-109.714-182.857-109.714s-182.857 29.143-182.857 109.714 120.571 109.714 182.857 109.714c37.714 0 75.429-6.857 109.714-22.286v306.857l-438.857-135.429v-405.143c0-80.571-120.571-109.714-182.857-109.714s-182.857 29.143-182.857 109.714 120.571 109.714 182.857 109.714c37.714 0 75.429-6.857 109.714-22.286v552.571c0 24 16 45.143 38.857 52.571l475.429 146.286c5.143 1.714 10.286 2.286 16 2.286 30.286 0 54.857-24.571 54.857-54.857z" />
<glyph unicode="&#xf002;" glyph-name="search1" horiz-adv-x="951" d="M658.286 475.428c0 141.143-114.857 256-256 256s-256-114.857-256-256 114.857-256 256-256 256 114.857 256 256zM950.857 0c0-40-33.143-73.143-73.143-73.143-19.429 0-38.286 8-51.429 21.714l-196 195.429c-66.857-46.286-146.857-70.857-228-70.857-222.286 0-402.286 180-402.286 402.286s180 402.286 402.286 402.286 402.286-180 402.286-402.286c0-81.143-24.571-161.143-70.857-228l196-196c13.143-13.143 21.143-32 21.143-51.429z" />
<glyph unicode="&#xf003;" glyph-name="mail6" d="M950.857 91.428v438.857c-12-13.714-25.143-26.286-39.429-37.714-81.714-62.857-164-126.857-243.429-193.143-42.857-36-96-80-155.429-80h-1.143c-59.429 0-112.571 44-155.429 80-79.429 66.286-161.714 130.286-243.429 193.143-14.286 11.429-27.429 24-39.429 37.714v-438.857c0-9.714 8.571-18.286 18.286-18.286h841.143c9.714 0 18.286 8.571 18.286 18.286zM950.857 692c0 14.286 3.429 39.429-18.286 39.429h-841.143c-9.714 0-18.286-8.571-18.286-18.286 0-65.143 32.571-121.714 84-162.286 76.571-60 153.143-120.571 229.143-181.143 30.286-24.571 85.143-77.143 125.143-77.143h1.143c40 0 94.857 52.571 125.143 77.143 76 60.571 152.571 121.143 229.143 181.143 37.143 29.143 84 92.571 84 141.143zM1024 713.143v-621.714c0-50.286-41.143-91.429-91.429-91.429h-841.143c-50.286 0-91.429 41.143-91.429 91.429v621.714c0 50.286 41.143 91.429 91.429 91.429h841.143c50.286 0 91.429-41.143 91.429-91.429z" />
<glyph unicode="&#xf004;" glyph-name="heart1" d="M512 0c-9.143 0-18.286 3.429-25.143 10.286l-356.571 344c-4.571 4-130.286 118.857-130.286 256 0 167.429 102.286 267.429 273.143 267.429 100 0 193.714-78.857 238.857-123.429 45.143 44.571 138.857 123.429 238.857 123.429 170.857 0 273.143-100 273.143-267.429 0-137.143-125.714-252-130.857-257.143l-356-342.857c-6.857-6.857-16-10.286-25.143-10.286z" />
<glyph unicode="&#xf005;" glyph-name="star1" horiz-adv-x="951" d="M950.857 581.143c0-10.286-7.429-20-14.857-27.429l-207.429-202.286 49.143-285.714c0.571-4 0.571-7.429 0.571-11.429 0-14.857-6.857-28.571-23.429-28.571-8 0-16 2.857-22.857 6.857l-256.571 134.857-256.571-134.857c-7.429-4-14.857-6.857-22.857-6.857-16.571 0-24 13.714-24 28.571 0 4 0.571 7.429 1.143 11.429l49.143 285.714-208 202.286c-6.857 7.429-14.286 17.143-14.286 27.429 0 17.143 17.714 24 32 26.286l286.857 41.714 128.571 260c5.143 10.857 14.857 23.429 28 23.429s22.857-12.571 28-23.429l128.571-260 286.857-41.714c13.714-2.286 32-9.143 32-26.286z" />
<glyph unicode="&#xf006;" glyph-name="star2" horiz-adv-x="951" d="M649.714 377.143l174.857 169.714-241.143 35.429-108 218.286-108-218.286-241.143-35.429 174.857-169.714-41.714-240.571 216 113.714 215.429-113.714zM950.857 581.143c0-10.286-7.429-20-14.857-27.429l-207.429-202.286 49.143-285.714c0.571-4 0.571-7.429 0.571-11.429 0-15.429-6.857-28.571-23.429-28.571-8 0-16 2.857-22.857 6.857l-256.571 134.857-256.571-134.857c-7.429-4-14.857-6.857-22.857-6.857-16.571 0-24 13.714-24 28.571 0 4 0.571 7.429 1.143 11.429l49.143 285.714-208 202.286c-6.857 7.429-14.286 17.143-14.286 27.429 0 17.143 17.714 24 32 26.286l286.857 41.714 128.571 260c5.143 10.857 14.857 23.429 28 23.429s22.857-12.571 28-23.429l128.571-260 286.857-41.714c13.714-2.286 32-9.143 32-26.286z" />
<glyph unicode="&#xf007;" glyph-name="user1" horiz-adv-x="731" d="M731.429 151.428c0-83.429-54.857-151.429-121.714-151.429h-488c-66.857 0-121.714 68-121.714 151.429 0 150.286 37.143 324 186.857 324 46.286-45.143 109.143-73.143 178.857-73.143s132.571 28 178.857 73.143c149.714 0 186.857-173.714 186.857-324zM585.143 658.286c0-121.143-98.286-219.429-219.429-219.429s-219.429 98.286-219.429 219.429 98.286 219.429 219.429 219.429 219.429-98.286 219.429-219.429z" />
<glyph unicode="&#xf00c;" glyph-name="check1" d="M954.857 627.428c0-14.286-5.714-28.571-16-38.857l-491.429-491.429c-10.286-10.286-24.571-16-38.857-16s-28.571 5.714-38.857 16l-284.571 284.571c-10.286 10.286-16 24.571-16 38.857s5.714 28.571 16 38.857l77.714 77.714c10.286 10.286 24.571 16 38.857 16s28.571-5.714 38.857-16l168-168.571 374.857 375.429c10.286 10.286 24.571 16 38.857 16s28.571-5.714 38.857-16l77.714-77.714c10.286-10.286 16-24.571 16-38.857z" />
<glyph unicode="&#xf00d;" glyph-name="del8" horiz-adv-x="805" d="M741.714 195.428c0-14.286-5.714-28.571-16-38.857l-77.714-77.714c-10.286-10.286-24.571-16-38.857-16s-28.571 5.714-38.857 16l-168 168-168-168c-10.286-10.286-24.571-16-38.857-16s-28.571 5.714-38.857 16l-77.714 77.714c-10.286 10.286-16 24.571-16 38.857s5.714 28.571 16 38.857l168 168-168 168c-10.286 10.286-16 24.571-16 38.857s5.714 28.571 16 38.857l77.714 77.714c10.286 10.286 24.571 16 38.857 16s28.571-5.714 38.857-16l168-168 168 168c10.286 10.286 24.571 16 38.857 16s28.571-5.714 38.857-16l77.714-77.714c10.286-10.286 16-24.571 16-38.857s-5.714-28.571-16-38.857l-168-168 168-168c10.286-10.286 16-24.571 16-38.857z" />
<glyph unicode="&#xf013;" glyph-name="gear2" horiz-adv-x="878" d="M585.143 438.857c0 80.571-65.714 146.286-146.286 146.286s-146.286-65.714-146.286-146.286 65.714-146.286 146.286-146.286 146.286 65.714 146.286 146.286zM877.714 501.143v-126.857c0-8.571-6.857-18.857-16-20.571l-105.714-16c-6.286-18.286-13.143-35.429-22.286-52 19.429-28 40-53.143 61.143-78.857 3.429-4 5.714-9.143 5.714-14.286s-1.714-9.143-5.143-13.143c-13.714-18.286-90.857-102.286-110.286-102.286-5.143 0-10.286 2.286-14.857 5.143l-78.857 61.714c-16.571-8.571-34.286-16-52-21.714-4-34.857-7.429-72-16.571-106.286-2.286-9.143-10.286-16-20.571-16h-126.857c-10.286 0-19.429 7.429-20.571 17.143l-16 105.143c-17.714 5.714-34.857 12.571-51.429 21.143l-80.571-61.143c-4-3.429-9.143-5.143-14.286-5.143s-10.286 2.286-14.286 6.286c-30.286 27.429-70.286 62.857-94.286 96-2.857 4-4 8.571-4 13.143 0 5.143 1.714 9.143 4.571 13.143 19.429 26.286 40.571 51.429 60 78.286-9.714 18.286-17.714 37.143-23.429 56.571l-104.571 15.429c-9.714 1.714-16.571 10.857-16.571 20.571v126.857c0 8.571 6.857 18.857 15.429 20.571l106.286 16c5.714 18.286 13.143 35.429 22.286 52.571-19.429 27.429-40 53.143-61.143 78.857-3.429 4-5.714 8.571-5.714 13.714s2.286 9.143 5.143 13.143c13.714 18.857 90.857 102.286 110.286 102.286 5.143 0 10.286-2.286 14.857-5.714l78.857-61.143c16.571 8.571 34.286 16 52 21.714 4 34.857 7.429 72 16.571 106.286 2.286 9.143 10.286 16 20.571 16h126.857c10.286 0 19.429-7.429 20.571-17.143l16-105.143c17.714-5.714 34.857-12.571 51.429-21.143l81.143 61.143c3.429 3.429 8.571 5.143 13.714 5.143s10.286-2.286 14.286-5.714c30.286-28 70.286-63.429 94.286-97.143 2.857-3.429 4-8 4-12.571 0-5.143-1.714-9.143-4.571-13.143-19.429-26.286-40.571-51.429-60-78.286 9.714-18.286 17.714-37.143 23.429-56l104.571-16c9.714-1.714 16.571-10.857 16.571-20.571z" />
<glyph unicode="&#xf014;" glyph-name="trash1" horiz-adv-x="805" d="M292.571 530.286v-329.143c0-10.286-8-18.286-18.286-18.286h-36.571c-10.286 0-18.286 8-18.286 18.286v329.143c0 10.286 8 18.286 18.286 18.286h36.571c10.286 0 18.286-8 18.286-18.286zM438.857 530.286v-329.143c0-10.286-8-18.286-18.286-18.286h-36.571c-10.286 0-18.286 8-18.286 18.286v329.143c0 10.286 8 18.286 18.286 18.286h36.571c10.286 0 18.286-8 18.286-18.286zM585.143 530.286v-329.143c0-10.286-8-18.286-18.286-18.286h-36.571c-10.286 0-18.286 8-18.286 18.286v329.143c0 10.286 8 18.286 18.286 18.286h36.571c10.286 0 18.286-8 18.286-18.286zM658.286 116.571v541.714h-512v-541.714c0-27.429 15.429-43.429 18.286-43.429h475.429c2.857 0 18.286 16 18.286 43.429zM274.286 731.428h256l-27.429 66.857c-1.714 2.286-6.857 5.714-9.714 6.286h-181.143c-3.429-0.571-8-4-9.714-6.286zM804.571 713.143v-36.571c0-10.286-8-18.286-18.286-18.286h-54.857v-541.714c0-62.857-41.143-116.571-91.429-116.571h-475.429c-50.286 0-91.429 51.429-91.429 114.286v544h-54.857c-10.286 0-18.286 8-18.286 18.286v36.571c0 10.286 8 18.286 18.286 18.286h176.571l40 95.429c11.429 28 45.714 50.857 76 50.857h182.857c30.286 0 64.571-22.857 76-50.857l40-95.429h176.571c10.286 0 18.286-8 18.286-18.286z" />
<glyph unicode="&#xf015;" glyph-name="home1" horiz-adv-x="951" d="M804.571 384v-274.286c0-20-16.571-36.571-36.571-36.571h-219.429v219.429h-146.286v-219.429h-219.429c-20 0-36.571 16.571-36.571 36.571v274.286c0 1.143 0.571 2.286 0.571 3.429l328.571 270.857 328.571-270.857c0.571-1.143 0.571-2.286 0.571-3.429zM932 423.428l-35.429-42.286c-2.857-3.429-7.429-5.714-12-6.286h-1.714c-4.571 0-8.571 1.143-12 4l-395.429 329.714-395.429-329.714c-4-2.857-8.571-4.571-13.714-4-4.571 0.571-9.143 2.857-12 6.286l-35.429 42.286c-6.286 7.429-5.143 19.429 2.286 25.714l410.857 342.286c24 20 62.857 20 86.857 0l139.429-116.571v111.429c0 10.286 8 18.286 18.286 18.286h109.714c10.286 0 18.286-8 18.286-18.286v-233.143l125.143-104c7.429-6.286 8.571-18.286 2.286-25.714z" />
<glyph unicode="&#xf016;" glyph-name="file1" horiz-adv-x="878" d="M838.857 733.714c21.143-21.143 38.857-63.429 38.857-93.714v-658.286c0-30.286-24.571-54.857-54.857-54.857h-768c-30.286 0-54.857 24.571-54.857 54.857v914.286c0 30.286 24.571 54.857 54.857 54.857h512c30.286 0 72.571-17.714 93.714-38.857zM585.143 873.143v-214.857h214.857c-3.429 9.714-8.571 19.429-12.571 23.429l-178.857 178.857c-4 4-13.714 9.143-23.429 12.571zM804.571 0v585.143h-237.714c-30.286 0-54.857 24.571-54.857 54.857v237.714h-438.857v-877.714h731.429z" />
<glyph unicode="&#xf01e;" glyph-name="repeat1" horiz-adv-x="878" d="M877.714 804.571v-256c0-20-16.571-36.571-36.571-36.571h-256c-14.857 0-28 9.143-33.714 22.857-5.714 13.143-2.857 29.143 8 39.429l78.857 78.857c-53.714 49.714-124.571 78.286-199.429 78.286-161.143 0-292.571-131.429-292.571-292.571s131.429-292.571 292.571-292.571c90.857 0 174.857 41.143 230.857 113.714 2.857 4 8 6.286 13.143 6.857 5.143 0 10.286-1.714 14.286-5.143l78.286-78.857c6.857-6.286 6.857-17.143 1.143-24.571-83.429-100.571-206.857-158.286-337.714-158.286-241.714 0-438.857 197.143-438.857 438.857s197.143 438.857 438.857 438.857c112.571 0 221.714-45.143 302.286-121.143l74.286 73.714c10.286 10.857 26.286 13.714 40 8 13.143-5.714 22.286-18.857 22.286-33.714z" />
<glyph unicode="&#xf021;" glyph-name="refresh1" horiz-adv-x="878" d="M863.429 347.428c0-1.143 0-2.857-0.571-4-48.571-202.286-215.429-343.429-426.286-343.429-111.429 0-219.429 44-300.571 121.143l-73.714-73.714c-6.857-6.857-16-10.857-25.714-10.857-20 0-36.571 16.571-36.571 36.571v256c0 20 16.571 36.571 36.571 36.571h256c20 0 36.571-16.571 36.571-36.571 0-9.714-4-18.857-10.857-25.714l-78.286-78.286c53.714-50.286 125.143-78.857 198.857-78.857 101.714 0 196 52.571 249.143 139.429 13.714 22.286 20.571 44 30.286 66.857 2.857 8 8.571 13.143 17.143 13.143h109.714c10.286 0 18.286-8.571 18.286-18.286zM877.714 804.571v-256c0-20-16.571-36.571-36.571-36.571h-256c-20 0-36.571 16.571-36.571 36.571 0 9.714 4 18.857 10.857 25.714l78.857 78.857c-54.286 50.286-125.714 78.286-199.429 78.286-101.714 0-196-52.571-249.143-139.429-13.714-22.286-20.571-44-30.286-66.857-2.857-8-8.571-13.143-17.143-13.143h-113.714c-10.286 0-18.286 8.571-18.286 18.286v4c49.143 202.857 217.714 343.429 428.571 343.429 112 0 221.143-44.571 302.286-121.143l74.286 73.714c6.857 6.857 16 10.857 25.714 10.857 20 0 36.571-16.571 36.571-36.571z" />
<glyph unicode="&#xf023;" glyph-name="lock1" horiz-adv-x="658" d="M182.857 512h292.571v109.714c0 80.571-65.714 146.286-146.286 146.286s-146.286-65.714-146.286-146.286v-109.714zM658.286 457.143v-329.143c0-30.286-24.571-54.857-54.857-54.857h-548.571c-30.286 0-54.857 24.571-54.857 54.857v329.143c0 30.286 24.571 54.857 54.857 54.857h18.286v109.714c0 140.571 115.429 256 256 256s256-115.429 256-256v-109.714h18.286c30.286 0 54.857-24.571 54.857-54.857z" />
<glyph unicode="&#xf026;" glyph-name="volume1" horiz-adv-x="439" d="M438.857 749.714v-621.714c0-20-16.571-36.571-36.571-36.571-9.714 0-18.857 4-25.714 10.857l-190.286 190.286h-149.714c-20 0-36.571 16.571-36.571 36.571v219.429c0 20 16.571 36.571 36.571 36.571h149.714l190.286 190.286c6.857 6.857 16 10.857 25.714 10.857 20 0 36.571-16.571 36.571-36.571z" />
<glyph unicode="&#xf027;" glyph-name="volume2" horiz-adv-x="658" d="M438.857 749.714v-621.714c0-20-16.571-36.571-36.571-36.571-9.714 0-18.857 4-25.714 10.857l-190.286 190.286h-149.714c-20 0-36.571 16.571-36.571 36.571v219.429c0 20 16.571 36.571 36.571 36.571h149.714l190.286 190.286c6.857 6.857 16 10.857 25.714 10.857 20 0 36.571-16.571 36.571-36.571zM658.286 438.857c0-57.143-34.857-112.571-88.571-134.286-4.571-2.286-9.714-2.857-14.286-2.857-20 0-36.571 16-36.571 36.571 0 43.429 66.286 31.429 66.286 100.571s-66.286 57.143-66.286 100.571c0 20.571 16.571 36.571 36.571 36.571 4.571 0 9.714-0.571 14.286-2.857 53.714-21.143 88.571-77.143 88.571-134.286z" />
<glyph unicode="&#xf028;" glyph-name="volume3" horiz-adv-x="951" d="M438.857 749.714v-621.714c0-20-16.571-36.571-36.571-36.571-9.714 0-18.857 4-25.714 10.857l-190.286 190.286h-149.714c-20 0-36.571 16.571-36.571 36.571v219.429c0 20 16.571 36.571 36.571 36.571h149.714l190.286 190.286c6.857 6.857 16 10.857 25.714 10.857 20 0 36.571-16.571 36.571-36.571zM658.286 438.857c0-57.143-34.857-112.571-88.571-134.286-4.571-2.286-9.714-2.857-14.286-2.857-20 0-36.571 16-36.571 36.571 0 43.429 66.286 31.429 66.286 100.571s-66.286 57.143-66.286 100.571c0 20.571 16.571 36.571 36.571 36.571 4.571 0 9.714-0.571 14.286-2.857 53.714-21.143 88.571-77.143 88.571-134.286zM804.571 438.857c0-116-69.714-224-177.143-269.143-4.571-1.714-9.714-2.857-14.286-2.857-20.571 0-37.143 16.571-37.143 36.571 0 16 9.143 26.857 22.286 33.714 15.429 8 29.714 14.857 43.429 25.143 56.571 41.143 89.714 106.857 89.714 176.571s-33.143 135.429-89.714 176.571c-13.714 10.286-28 17.143-43.429 25.143-13.143 6.857-22.286 17.714-22.286 33.714 0 20 16.571 36.571 36.571 36.571 5.143 0 10.286-1.143 14.857-2.857 107.429-45.143 177.143-153.143 177.143-269.143zM950.857 438.857c0-175.429-104.571-334.286-265.714-403.429-4.571-1.714-9.714-2.857-14.857-2.857-20 0-36.571 16.571-36.571 36.571 0 16.571 8.571 25.714 22.286 33.714 8 4.571 17.143 7.429 25.714 12 16 8.571 32 18.286 46.857 29.143 93.714 69.143 149.143 178.286 149.143 294.857s-55.429 225.714-149.143 294.857c-14.857 10.857-30.857 20.571-46.857 29.143-8.571 4.571-17.714 7.429-25.714 12-13.714 8-22.286 17.143-22.286 33.714 0 20 16.571 36.571 36.571 36.571 5.143 0 10.286-1.143 14.857-2.857 161.143-69.143 265.714-228 265.714-403.429z" />
<glyph unicode="&#xf02f;" glyph-name="print1" horiz-adv-x="951" d="M219.429 73.143h512v146.286h-512v-146.286zM219.429 438.857h512v219.429h-91.429c-30.286 0-54.857 24.571-54.857 54.857v91.429h-365.714v-365.714zM877.714 402.286c0 20-16.571 36.571-36.571 36.571s-36.571-16.571-36.571-36.571 16.571-36.571 36.571-36.571 36.571 16.571 36.571 36.571zM950.857 402.286v-237.714c0-9.714-8.571-18.286-18.286-18.286h-128v-91.429c0-30.286-24.571-54.857-54.857-54.857h-548.571c-30.286 0-54.857 24.571-54.857 54.857v91.429h-128c-9.714 0-18.286 8.571-18.286 18.286v237.714c0 60 49.714 109.714 109.714 109.714h36.571v310.857c0 30.286 24.571 54.857 54.857 54.857h384c30.286 0 72-17.143 93.714-38.857l86.857-86.857c21.714-21.714 38.857-63.429 38.857-93.714v-146.286h36.571c60 0 109.714-49.714 109.714-109.714z" />
<glyph unicode="&#xf048;" glyph-name="step8" horiz-adv-x="585" d="M559.429 870.286c14.286 14.286 25.714 9.143 25.714-10.857v-841.143c0-20-11.429-25.143-25.714-10.857l-405.714 405.714c-3.429 3.429-5.714 6.857-7.429 10.857v-387.429c0-20-16.571-36.571-36.571-36.571h-73.143c-20 0-36.571 16.571-36.571 36.571v804.571c0 20 16.571 36.571 36.571 36.571h73.143c20 0 36.571-16.571 36.571-36.571v-387.429c1.714 4 4 7.429 7.429 10.857z" />
<glyph unicode="&#xf049;" glyph-name="step6" d="M998.286 870.286c14.286 14.286 25.714 9.143 25.714-10.857v-841.143c0-20-11.429-25.143-25.714-10.857l-405.714 405.714c-3.429 3.429-5.714 6.857-7.429 10.857v-405.714c0-20-11.429-25.143-25.714-10.857l-405.714 405.714c-3.429 3.429-5.714 6.857-7.429 10.857v-387.429c0-20-16.571-36.571-36.571-36.571h-73.143c-20 0-36.571 16.571-36.571 36.571v804.571c0 20 16.571 36.571 36.571 36.571h73.143c20 0 36.571-16.571 36.571-36.571v-387.429c1.714 4 4 7.429 7.429 10.857l405.714 405.714c14.286 14.286 25.714 9.143 25.714-10.857v-405.714c1.714 4 4 7.429 7.429 10.857z" />
<glyph unicode="&#xf04a;" glyph-name="step7" horiz-adv-x="1017" d="M925.143 870.286c14.286 14.286 25.714 9.143 25.714-10.857v-841.143c0-20-11.429-25.143-25.714-10.857l-405.714 405.714c-3.429 3.429-5.714 6.857-7.429 10.857v-405.714c0-20-11.429-25.143-25.714-10.857l-405.714 405.714c-14.286 14.286-14.286 37.143 0 51.429l405.714 405.714c14.286 14.286 25.714 9.143 25.714-10.857v-405.714c1.714 4 4 7.429 7.429 10.857z" />
<glyph unicode="&#xf04b;" glyph-name="play1" horiz-adv-x="809" d="M790.857 421.143l-758.857-421.714c-17.714-9.714-32-1.143-32 18.857v841.143c0 20 14.286 28.571 32 18.857l758.857-421.714c17.714-9.714 17.714-25.714 0-35.429z" />
<glyph unicode="&#xf04c;" glyph-name="pause1" horiz-adv-x="878" d="M877.714 841.143v-804.571c0-20-16.571-36.571-36.571-36.571h-292.571c-20 0-36.571 16.571-36.571 36.571v804.571c0 20 16.571 36.571 36.571 36.571h292.571c20 0 36.571-16.571 36.571-36.571zM365.714 841.143v-804.571c0-20-16.571-36.571-36.571-36.571h-292.571c-20 0-36.571 16.571-36.571 36.571v804.571c0 20 16.571 36.571 36.571 36.571h292.571c20 0 36.571-16.571 36.571-36.571z" />
<glyph unicode="&#xf04d;" glyph-name="stop1" horiz-adv-x="878" d="M877.714 841.143v-804.571c0-20-16.571-36.571-36.571-36.571h-804.571c-20 0-36.571 16.571-36.571 36.571v804.571c0 20 16.571 36.571 36.571 36.571h804.571c20 0 36.571-16.571 36.571-36.571z" />
<glyph unicode="&#xf04e;" glyph-name="step4" horiz-adv-x="885" d="M25.714 7.428c-14.286-14.286-25.714-9.143-25.714 10.857v841.143c0 20 11.429 25.143 25.714 10.857l405.714-405.714c3.429-3.429 5.714-6.857 7.429-10.857v405.714c0 20 11.429 25.143 25.714 10.857l405.714-405.714c14.286-14.286 14.286-37.143 0-51.429l-405.714-405.714c-14.286-14.286-25.714-9.143-25.714 10.857v405.714c-1.714-4-4-7.429-7.429-10.857z" />
<glyph unicode="&#xf050;" glyph-name="step2" d="M25.714 7.428c-14.286-14.286-25.714-9.143-25.714 10.857v841.143c0 20 11.429 25.143 25.714 10.857l405.714-405.714c3.429-3.429 5.714-6.857 7.429-10.857v405.714c0 20 11.429 25.143 25.714 10.857l405.714-405.714c3.429-3.429 5.714-6.857 7.429-10.857v387.429c0 20 16.571 36.571 36.571 36.571h73.143c20 0 36.571-16.571 36.571-36.571v-804.571c0-20-16.571-36.571-36.571-36.571h-73.143c-20 0-36.571 16.571-36.571 36.571v387.429c-1.714-4-4-7.429-7.429-10.857l-405.714-405.714c-14.286-14.286-25.714-9.143-25.714 10.857v405.714c-1.714-4-4-7.429-7.429-10.857z" />
<glyph unicode="&#xf051;" glyph-name="step3" horiz-adv-x="585" d="M25.714 7.428c-14.286-14.286-25.714-9.143-25.714 10.857v841.143c0 20 11.429 25.143 25.714 10.857l405.714-405.714c3.429-3.429 5.714-6.857 7.429-10.857v387.429c0 20 16.571 36.571 36.571 36.571h73.143c20 0 36.571-16.571 36.571-36.571v-804.571c0-20-16.571-36.571-36.571-36.571h-73.143c-20 0-36.571 16.571-36.571 36.571v387.429c-1.714-4-4-7.429-7.429-10.857z" />
<glyph unicode="&#xf053;" glyph-name="arrow40" horiz-adv-x="768" d="M669.143 778.857l-303.429-303.429 303.429-303.429c14.286-14.286 14.286-37.143 0-51.429l-94.857-94.857c-14.286-14.286-37.143-14.286-51.429 0l-424 424c-14.286 14.286-14.286 37.143 0 51.429l424 424c14.286 14.286 37.143 14.286 51.429 0l94.857-94.857c14.286-14.286 14.286-37.143 0-51.429z" />
<glyph unicode="&#xf054;" glyph-name="arrow41" horiz-adv-x="695" d="M632.571 449.714l-424-424c-14.286-14.286-37.143-14.286-51.429 0l-94.857 94.857c-14.286 14.286-14.286 37.143 0 51.429l303.429 303.429-303.429 303.429c-14.286 14.286-14.286 37.143 0 51.429l94.857 94.857c14.286 14.286 37.143 14.286 51.429 0l424-424c14.286-14.286 14.286-37.143 0-51.429z" />
<glyph unicode="&#xf055;" glyph-name="plus5" horiz-adv-x="878" d="M694.857 402.286v73.143c0 20-16.571 36.571-36.571 36.571h-146.286v146.286c0 20-16.571 36.571-36.571 36.571h-73.143c-20 0-36.571-16.571-36.571-36.571v-146.286h-146.286c-20 0-36.571-16.571-36.571-36.571v-73.143c0-20 16.571-36.571 36.571-36.571h146.286v-146.286c0-20 16.571-36.571 36.571-36.571h73.143c20 0 36.571 16.571 36.571 36.571v146.286h146.286c20 0 36.571 16.571 36.571 36.571zM877.714 438.857c0-242.286-196.571-438.857-438.857-438.857s-438.857 196.571-438.857 438.857 196.571 438.857 438.857 438.857 438.857-196.571 438.857-438.857z" />
<glyph unicode="&#xf056;" glyph-name="minus4" horiz-adv-x="878" d="M694.857 402.286v73.143c0 20-16.571 36.571-36.571 36.571h-438.857c-20 0-36.571-16.571-36.571-36.571v-73.143c0-20 16.571-36.571 36.571-36.571h438.857c20 0 36.571 16.571 36.571 36.571zM877.714 438.857c0-242.286-196.571-438.857-438.857-438.857s-438.857 196.571-438.857 438.857 196.571 438.857 438.857 438.857 438.857-196.571 438.857-438.857z" />
<glyph unicode="&#xf057;" glyph-name="del9" horiz-adv-x="878" d="M656.571 309.714c0 9.714-4 18.857-10.857 25.714l-103.429 103.429 103.429 103.429c6.857 6.857 10.857 16 10.857 25.714s-4 19.429-10.857 26.286l-51.429 51.429c-6.857 6.857-16.571 10.857-26.286 10.857s-18.857-4-25.714-10.857l-103.429-103.429-103.429 103.429c-6.857 6.857-16 10.857-25.714 10.857s-19.429-4-26.286-10.857l-51.429-51.429c-6.857-6.857-10.857-16.571-10.857-26.286s4-18.857 10.857-25.714l103.429-103.429-103.429-103.429c-6.857-6.857-10.857-16-10.857-25.714s4-19.429 10.857-26.286l51.429-51.429c6.857-6.857 16.571-10.857 26.286-10.857s18.857 4 25.714 10.857l103.429 103.429 103.429-103.429c6.857-6.857 16-10.857 25.714-10.857s19.429 4 26.286 10.857l51.429 51.429c6.857 6.857 10.857 16.571 10.857 26.286zM877.714 438.857c0-242.286-196.571-438.857-438.857-438.857s-438.857 196.571-438.857 438.857 196.571 438.857 438.857 438.857 438.857-196.571 438.857-438.857z" />
<glyph unicode="&#xf058;" glyph-name="check5" horiz-adv-x="878" d="M733.714 531.428c0 9.714-3.429 19.429-10.286 26.286l-52 51.429c-6.857 6.857-16 10.857-25.714 10.857s-18.857-4-25.714-10.857l-233.143-232.571-129.143 129.143c-6.857 6.857-16 10.857-25.714 10.857s-18.857-4-25.714-10.857l-52-51.429c-6.857-6.857-10.286-16.571-10.286-26.286s3.429-18.857 10.286-25.714l206.857-206.857c6.857-6.857 16.571-10.857 25.714-10.857 9.714 0 19.429 4 26.286 10.857l310.286 310.286c6.857 6.857 10.286 16 10.286 25.714zM877.714 438.857c0-242.286-196.571-438.857-438.857-438.857s-438.857 196.571-438.857 438.857 196.571 438.857 438.857 438.857 438.857-196.571 438.857-438.857z" />
<glyph unicode="&#xf059;" glyph-name="question2" horiz-adv-x="878" d="M512 164.571v109.714c0 10.286-8 18.286-18.286 18.286h-109.714c-10.286 0-18.286-8-18.286-18.286v-109.714c0-10.286 8-18.286 18.286-18.286h109.714c10.286 0 18.286 8 18.286 18.286zM658.286 548.571c0 104.571-109.714 182.857-208 182.857-93.143 0-162.857-40-212-121.714-5.143-8-2.857-18.286 4.571-24l75.429-57.143c2.857-2.286 6.857-3.429 10.857-3.429 5.143 0 10.857 2.286 14.286 6.857 26.857 34.286 38.286 44.571 49.143 52.571 9.714 6.857 28.571 13.714 49.143 13.714 36.571 0 70.286-23.429 70.286-48.571 0-29.714-15.429-44.571-50.286-60.571-40.571-18.286-96-65.714-96-121.143v-20.571c0-10.286 8-18.286 18.286-18.286h109.714c10.286 0 18.286 8 18.286 18.286v0c0 13.143 16.571 41.143 43.429 56.571 43.429 24.571 102.857 57.714 102.857 144.571zM877.714 438.857c0-242.286-196.571-438.857-438.857-438.857s-438.857 196.571-438.857 438.857 196.571 438.857 438.857 438.857 438.857-196.571 438.857-438.857z" />
<glyph unicode="&#xf05a;" glyph-name="info7" horiz-adv-x="878" d="M585.143 164.571v91.429c0 10.286-8 18.286-18.286 18.286h-54.857v292.571c0 10.286-8 18.286-18.286 18.286h-182.857c-10.286 0-18.286-8-18.286-18.286v-91.429c0-10.286 8-18.286 18.286-18.286h54.857v-182.857h-54.857c-10.286 0-18.286-8-18.286-18.286v-91.429c0-10.286 8-18.286 18.286-18.286h256c10.286 0 18.286 8 18.286 18.286zM512 676.571v91.429c0 10.286-8 18.286-18.286 18.286h-109.714c-10.286 0-18.286-8-18.286-18.286v-91.429c0-10.286 8-18.286 18.286-18.286h109.714c10.286 0 18.286 8 18.286 18.286zM877.714 438.857c0-242.286-196.571-438.857-438.857-438.857s-438.857 196.571-438.857 438.857 196.571 438.857 438.857 438.857 438.857-196.571 438.857-438.857z" />
</font>
</defs>
</svg>
